<?xml version="1.0" encoding="UTF-8" standalone="no"?>
<!-- Created with Inkscape (http://www.inkscape.org/) -->

<svg
   xmlns:dc="http://purl.org/dc/elements/1.1/"
   xmlns:cc="http://creativecommons.org/ns#"
   xmlns:rdf="http://www.w3.org/1999/02/22-rdf-syntax-ns#"
   xmlns:svg="http://www.w3.org/2000/svg"
   xmlns="http://www.w3.org/2000/svg"
   xmlns:sodipodi="http://sodipodi.sourceforge.net/DTD/sodipodi-0.dtd"
   xmlns:inkscape="http://www.inkscape.org/namespaces/inkscape"
   id="svg3390"
   version="1.1"
   inkscape:version="0.48.3.1 r9886"
   width="1000"
   height="649.40887"
   viewBox="0 0 1000 649.40887"
   sodipodi:docname="bizkit.svg">
  <metadata
     id="metadata3396">
    <rdf:RDF>
      <cc:Work
         rdf:about="">
        <dc:format>image/svg+xml</dc:format>
        <dc:type
           rdf:resource="http://purl.org/dc/dcmitype/StillImage" />
        <dc:title />
      </cc:Work>
    </rdf:RDF>
  </metadata>
  <defs
     id="defs3394" />
  <sodipodi:namedview
     pagecolor="#ffffff"
     bordercolor="#666666"
     borderopacity="1"
     objecttolerance="10"
     gridtolerance="10"
     guidetolerance="10"
     inkscape:pageopacity="0"
     inkscape:pageshadow="2"
     inkscape:window-width="1366"
     inkscape:window-height="712"
     id="namedview3392"
     showgrid="false"
     fit-margin-top="0"
     fit-margin-left="0"
     fit-margin-right="0"
     fit-margin-bottom="0"
     inkscape:zoom="0.5"
     inkscape:cx="818.35077"
     inkscape:cy="411.83077"
     inkscape:window-x="0"
     inkscape:window-y="27"
     inkscape:window-maximized="1"
     inkscape:current-layer="svg3390" />
  <path
     style="opacity:0.77999998;fill:#000000;fill-opacity:1;stroke:#000000;stroke-width:4;stroke-miterlimit:4;stroke-dasharray:none;stroke-dashoffset:0"
     d="m 454.78788,93.416028 c 46.50396,-48.172494 18.86803,-17.90364 34.4598,-30.34984 60.85904,-25.747962 80.00363,-42.063223 155.65691,-56.5311224 66.43562,-9.296718 160.24703,-3.671943 201.58858,12.3031164 27.73602,24.658617 43.34142,33.314656 75.22082,75.177396 26.0344,42.647602 20.2425,28.796772 34.3902,50.466262 30.2952,61.33412 37.609,133.63472 21.016,197.03723 -20.4932,32.30287 -34.7208,78.42035 -66.9734,98.547 -26.4034,-0.90486 25.2666,-35.11969 -3.7739,10.00535 -5.727,66.525 8.7285,134.10172 37.5377,194.11066 -33.6827,20.10875 -35.9545,-59.37846 -47.3603,-83.33421 -4.086,-45.08933 -22.1285,-101.04203 12.2042,-138.56332 65.6586,-69.97205 -23.866,32.72269 10.2197,-1.50797 26.0249,-40.24706 54.936,-81.63475 53.8241,-132.10088 11.8517,-52.50192 -4.0853,-99.86264 -29.5593,-150.67672 C 891.83989,88.276538 935.22379,85.089738 809.41185,21.474208 728.12851,5.3191176 577.59641,19.559996 546.3791,42.512785 c -25.50323,11.990423 -52.90667,22.566023 -57.56231,24.117673 -20.97752,11.47744 18.70524,-13.60157 -9.48655,11.19995 -4.51731,10.31168 -15.94865,11.12607 -24.54236,15.58562 z"
     id="path3416"
     inkscape:connector-curvature="0"
     sodipodi:nodetypes="cccccccccccccccccccc" />
  <path
     style="opacity:0.83399999;fill:#000000;stroke:#000000;stroke-width:4;stroke-miterlimit:4;stroke-dasharray:none;stroke-dashoffset:0"
     d="m 470.67731,94.235018 c -3.62109,0.0132 -7.13156,0.50536 -10.4629,1.74219 15.20312,1.18846 30.00903,5.826152 45.28516,6.013672 -9.30358,29.21827 -33.22048,60.36932 -32.56055,94.5918 l -0.91108,12.06969 4.91499,-14.10876 c 0.37893,-34.34862 21.09357,-63.61113 33.6543,-94.19531 -12.64414,-0.0963 -26.98748,-6.160562 -39.91992,-6.113282 z m -0.50782,127.138672 c -23.85402,29.87618 -49.56284,58.17461 -63.58593,95.18555 -17.73014,23.33515 16.61028,40.81838 36.65234,43.06055 10.68611,17.59355 -26.58248,38.36148 -6.7793,56.02343 24.51569,4.32912 0.30848,1.83519 -0.44531,20.39649 4.09107,17.16502 22.3437,25.00337 11.76953,44.38672 -10.65053,24.85917 -8.18262,53.8176 12.46875,72.64258 39.76832,14.41285 84.57506,0.53336 124.58789,9.96679 25.94679,15.69891 20.3517,46.68592 25.64453,71.54102 2.31192,-1.93452 8.9985,-2.04384 4.48438,-6.85352 -2.48461,-24.26375 -0.78511,-53.05672 -24.77149,-68.13086 -27.13612,-7.10718 -57.47355,-2.06079 -85.83984,-3.33008 -28.64864,5.55603 -56.43253,-14.88909 -57.25391,-43.83203 -4.41637,-20.9254 22.22234,-49.51017 0.45508,-63.88086 -11.24563,-15.52962 -0.26008,-32.85421 3.87696,-31.04101 -26.28789,-7.85268 -9.06071,-34.98457 0.11328,-51.01758 0.24392,-22.42353 -39.46849,-9.40685 -43.25977,-33.87305 -2.15847,-18.71674 14.19377,-36.99997 23.41992,-52.93359 12.6277,-26.68013 23.92016,-23.35429 47.87332,-72.61487 -3.33355,-34.97218 -8.96871,4.12333 -9.41043,14.30432 z"
     id="path3404"
     inkscape:connector-curvature="0"
     sodipodi:nodetypes="sccccccscccccccccccccccccccc" />
  <path
     style="opacity:0.77999998;fill:#000000;fill-opacity:1;stroke:#000000;stroke-width:5.57616663;stroke-miterlimit:4;stroke-dasharray:none;stroke-dashoffset:0"
     d="m 218.4254,25.052702 c -1.20353,0.01116 -2.40791,-0.02482 -3.61036,0.03262 -1.24534,0.116542 -2.44189,0.474295 -3.63757,0.819557 -1.08972,0.380922 -2.20692,0.656817 -3.29724,1.03463 -0.87759,0.289918 -1.71434,0.691026 -2.53759,1.108151 -0.80801,0.367638 -1.59594,0.779354 -2.38239,1.192562 -3.4638,1.605099 -6.74499,3.727612 -10.01696,5.614293 16.80189,-9.721879 1.69202,-0.990647 -0.8631,0.541822 -0.0994,0.05953 -0.76855,0.729851 -0.83588,0.786867 -1.0774,0.913167 0.096,-0.222601 -0.90124,0.78143 -0.40536,0.388255 -0.77747,0.808475 -1.14898,1.227956 -0.42645,-0.34045 -0.8125,-0.740916 -1.17895,-1.121769 -0.79905,-0.922549 -1.70478,-1.741743 -2.52942,-2.641053 -0.77664,-0.828633 -1.72926,-1.453665 -2.60838,-2.16457 -0.84952,-0.654462 -1.76371,-1.182399 -2.7282,-1.644538 -1.12839,-0.531868 -2.23671,-1.099048 -3.41975,-1.500225 -1.13905,-0.442483 -2.32605,-0.693006 -3.51505,-0.950235 -1.08951,-0.369129 -2.20945,-0.548402 -3.35169,-0.639851 -1.30263,-0.08085 -2.60792,-0.08294 -3.91257,-0.08713 -1.30048,-0.0042 -2.60123,0.0042 -3.90169,0.0056 -1.31841,-0.06148 -2.6132,0.216327 -3.91257,0.389342 -1.07903,0.139488 -2.11678,0.48698 -3.13114,0.868558 -1.01531,0.510288 -2.40555,1.280915 -3.74649,2.022991 0.52859,-0.305434 0.47326,-0.269524 1.08908,-0.626232 -3.94797,1.901864 -7.29112,3.798974 -10.40902,6.589037 -0.11487,0.08406 -0.22881,0.168511 -0.34307,0.253213 -0.17,-0.105111 -0.3378,-0.233334 -0.5037,-0.348511 -1.0569,-1.082682 -2.23784,-1.993883 -3.4851,-2.842534 -1.93564,-1.304976 -3.86243,-2.620032 -5.91651,-3.732881 -1.44266,-0.664038 -2.78435,-1.490886 -4.14946,-2.292543 -0.95925,-0.695446 -2.03189,-1.152636 -3.1502,-1.522015 -1.14151,-0.241239 -2.2627,-0.565382 -3.39798,-0.83315 -1.44598,-0.397998 -2.84691,-0.07988 -4.25836,0.291327 -4.42727,1.537908 -8.37036,4.261712 -12.34489,6.681601 18.23481,-10.588458 -0.73625,0.427008 -1.149,0.672513 -0.72132,0.429058 -1.16661,1.185688 -1.82968,1.682651 -0.51889,0.654376 -1.28453,1.060963 -1.813342,1.698987 -1.164376,1.404819 0.443152,-0.347952 -0.688851,0.860389 -0.885651,0.893051 -1.598189,1.918662 -2.330655,2.940563 -0.873858,1.205122 -1.966637,2.223441 -2.956908,3.324455 -0.628292,0.895352 -1.352287,1.726507 -2.148232,2.477687 -0.542364,0.655841 -1.324815,1.05324 -1.886861,1.682663 -1.426958,1.598005 0.611258,-0.508671 -0.754205,0.879446 -0.782642,0.885564 -1.681588,1.633343 -2.5267,2.472235 -0.944308,1.317592 -2.092596,2.510502 -3.196486,3.708373 -1.110252,1.274015 -2.295121,2.474285 -3.38437,3.768263 -0.708879,1.301811 -1.864192,2.178706 -2.896986,3.199228 -1.047118,1.021386 -1.88768,2.226368 -2.720024,3.42247 -0.8616,0.827294 -1.35915,1.916389 -1.87051,2.973239 -0.0571,0.163814 -0.0977,0.335895 -0.17154,0.492808 -0.30451,0.646612 -0.18277,0.08267 -0.43292,0.784149 -0.22073,0.618982 -0.36471,1.236654 -0.62077,1.848736 -0.45792,1.248615 -0.93134,2.496282 -1.48661,3.705656 -0.34354,1.061464 -0.87479,2.023702 -1.13812,3.112089 -0.56665,1.016953 -0.81259,2.178413 -1.31236,3.218271 -0.26592,0.760226 -0.76996,1.349027 -1.35591,1.881412 l 1.12448,-0.468314 c 0.25757,1.600958 2.36943,3.445555 1.88685,4.949949 -0.4518,1.183764 -0.39181,2.465181 -0.66162,3.681134 -0.12909,1.1166 -0.49828,2.153084 -0.78686,3.229172 -0.44459,1.080871 -0.92742,2.129914 -1.21434,3.267285 -0.30106,1.39651 -1.12169,2.602119 -1.59009,3.956139 -0.28297,1.08488 -0.73035,2.11114 -1.19256,3.12569 -0.42345,0.99558 -0.34731,2.09222 -0.58538,3.12571 -0.28932,1.173 -0.40245,2.37484 -0.47103,3.57768 -0.31162,1.00587 -0.47217,2.03881 -0.56362,3.08486 -0.0797,1.16792 -0.0815,2.33954 -0.0844,3.50961 0.11501,1.0831 -0.22821,2.10269 -0.39752,3.15837 -0.15622,1.13016 -0.17359,2.27268 -0.1906,3.4116 -0.0112,1.19256 -0.01,2.38508 -0.008,3.57767 -0.003,1.25007 0.008,2.49915 0.0112,3.74922 -0.003,1.37947 9.1e-4,2.75908 0.003,4.13856 -0.002,1.33839 -0.007,2.67764 -0.008,4.01604 -0.23601,1.44125 -0.39364,2.88904 -0.49555,4.34547 -0.0851,1.34018 -0.0993,2.68455 -0.10622,4.02694 0.0277,1.21893 -0.0835,2.44309 0.098,3.6512 0.23997,1.17375 0.37621,2.36132 0.44926,3.55589 0.0571,1.18375 0.0558,2.37107 0.0571,3.55589 0.20107,1.20235 0.4004,2.40041 0.5037,3.6158 0.1139,1.1974 0.005,2.40537 0.18788,3.594 0.24075,1.17444 0.37487,2.36052 0.44652,3.55591 -0.0437,1.22841 0.15427,2.41699 0.3594,3.62123 0.19631,1.16564 0.2449,2.3493 0.27501,3.52867 0.0535,1.26793 0.35017,2.5083 0.47646,3.77371 0.0286,1.46365 0.22804,2.90017 0.44109,4.3455 0.195,1.28406 0.24747,2.58367 0.28316,3.87989 0.0237,1.3457 0.0178,2.69199 0.0139,4.03783 0.005,1.22152 0.1118,2.41632 0.0789,3.64031 -0.0422,1.19321 -0.0637,2.38655 -0.0763,3.58039 0.0201,1.21162 -0.0942,2.43101 0.0844,3.63212 0.2711,1.44567 0.38821,2.90863 0.46014,4.37545 0.0615,1.76819 0.0679,3.54026 0.0681,5.30934 -0.005,1.51384 -0.0162,3.02768 -0.0217,4.54152 -0.007,1.32712 -0.003,2.65356 0.005,3.98065 -0.0228,1.61764 -0.029,3.21898 0.19603,4.82197 0.20979,1.26006 0.31097,2.53129 0.36213,3.80637 0.0356,1.18645 0.0328,2.37449 0.0326,3.56135 -0.002,1.19207 -0.005,2.38287 -0.005,3.57497 -0.21164,1.36413 -0.40813,2.72762 -0.49554,4.10588 -0.0784,1.41533 -0.0994,2.83296 -0.098,4.2502 0.0126,1.55672 -1.4e-4,3.11274 0.005,4.66948 0.0315,1.42273 -0.30661,2.82059 -0.46287,4.23114 0.0152,1.13249 -0.22518,2.19411 -0.46015,3.28907 -0.0797,1.27372 -0.33647,2.50865 -0.56631,3.76009 -0.47635,1.17122 -0.56307,2.44394 -0.89852,3.64847 -0.5404,1.29745 -0.87678,2.66234 -1.44032,3.95342 -0.4129,1.2753 -0.85504,2.50781 -1.39132,3.73559 -0.38338,1.08662 -0.74854,2.18149 -1.21979,3.23462 -0.6077,0.99454 -0.95536,2.10941 -1.40492,3.17742 -0.17574,1.00102 -0.64099,1.75173 -1.13267,2.60295 -0.14031,0.4798 -0.39227,0.84829 -0.72153,1.21161 l 8.14644,-3.5341 c 0.2424,-0.42613 0.45907,-0.86495 0.69702,-1.29331 0.4895,-0.84958 0.72535,-1.78787 1.07276,-2.69823 0.4566,-1.06697 0.84033,-2.16116 1.39949,-3.18288 0.4028,-1.07178 0.80858,-2.14279 1.21433,-3.21283 0.5326,-1.22684 0.86377,-2.5157 1.37227,-3.75193 0.50747,-1.34489 0.94553,-2.71554 1.39949,-4.07865 0.26065,-1.23812 0.53202,-2.4677 0.874,-3.6866 0.23727,-1.24496 0.39011,-2.49755 0.59627,-3.7465 0.24421,-1.11042 0.324,-2.22441 0.40569,-3.35712 0.17569,-1.4337 0.45447,-2.8642 0.40025,-4.31554 0.004,-1.55637 -0.0173,-3.11316 0.003,-4.6695 0.0157,-1.39788 0.0201,-2.79814 0.12533,-4.19301 0.12867,-1.39646 0.36411,-2.77712 0.48191,-4.17395 0,-1.19241 0.003,-2.38526 0.003,-3.57769 -0.002,-1.19899 2.6e-4,-2.39863 -0.0517,-3.59674 -0.0701,-1.29599 -0.2031,-2.58537 -0.41658,-3.86629 -0.20338,-1.56599 -0.15266,-3.13645 -0.14429,-4.71304 0.007,-1.3294 0.0126,-2.65939 0.008,-3.98882 -0.003,-1.50836 -0.007,-3.01684 -0.0139,-4.52519 -0.006,-1.78405 0.003,-3.57012 -0.0763,-5.3529 -0.0754,-1.49023 -0.22304,-2.97207 -0.45741,-4.44622 -0.0991,-1.17273 -0.0215,-2.35014 -0.0326,-3.52596 0.016,-1.19189 0.0456,-2.38342 0.0789,-3.57495 0.0142,-1.22186 -0.11362,-2.43503 -0.0899,-3.65663 -9.1e-4,-1.35216 -0.003,-2.70223 -0.0299,-4.05416 -0.0344,-1.32922 -0.12533,-2.65841 -0.33761,-3.97248 -0.21743,-1.43315 -0.34416,-2.86526 -0.4193,-4.31281 -0.13537,-1.24414 -0.41354,-2.47151 -0.43292,-3.72471 -0.0437,-1.2168 -0.11961,-2.4343 -0.33489,-3.63485 -0.20054,-1.17614 -0.31438,-2.34456 -0.31857,-3.53956 -0.0909,-1.20993 -0.25367,-2.41063 -0.46831,-3.60491 -0.11055,-1.18591 -0.0446,-2.3808 -0.17426,-3.56678 -0.12003,-1.18782 -0.34815,-2.36103 -0.46831,-3.54774 -0.005,-1.20243 -0.008,-2.4044 -0.0844,-3.60489 -0.0923,-1.20748 -0.2595,-2.40439 -0.47103,-3.59674 -0.10219,-1.18054 -0.0252,-2.36931 -0.0463,-3.55318 0.008,-1.32144 0.0212,-2.64282 0.11431,-3.96158 0.1171,-1.4772 0.35478,-2.93824 0.48192,-4.41355 -0.003,-1.33626 -0.005,-2.67161 -0.005,-4.00787 0.002,-1.38017 0.005,-2.76113 0,-4.1413 0.003,-1.25239 0.008,-2.50495 0.003,-3.75737 -9.1e-4,-1.18731 -0.005,-2.37417 0.0163,-3.56134 0.0278,-1.10179 0.0673,-2.2073 0.26411,-3.29452 0.20533,-1.0894 0.40652,-2.16926 0.31856,-3.28634 0.008,-1.14516 0.0147,-2.2929 0.13061,-3.43337 0.13049,-1.04842 0.40326,-2.06618 0.54183,-3.11209 0.091,-1.17452 0.25635,-2.33591 0.52005,-3.4851 0.1474,-0.99983 0.21749,-2.02402 0.68885,-2.94056 0.45842,-1.02317 0.77677,-2.103055 1.13538,-3.163823 0.53713,-1.33906 1.3034,-2.593656 1.576461,-4.026927 0.358312,-1.111023 0.891903,-2.152358 1.225236,-3.272721 0.325088,-1.085304 -0.742512,-2.082002 -0.55271,-3.199228 0.170111,-1.203686 0.432293,-2.498416 0.844038,-3.653909 0.440574,-1.50661 1.363689,-2.106453 1.146277,-5.401911 l -2.581152,0.895783 c 0.403446,-0.561548 0.74283,-1.161459 0.977458,-1.818795 0.39502,-1.118942 0.896689,-2.19114 1.276968,-3.313567 0.344052,-1.019184 0.806238,-1.994595 1.173494,-3.005903 0.495536,-1.235874 1.006496,-2.465767 1.456661,-3.719261 0.389624,-1.041154 0.775044,-2.074139 1.293311,-3.060354 0.552482,-1.008742 1.11147,-1.98722 1.88958,-2.847985 0.832018,-1.167761 1.731055,-2.29568 2.782631,-3.275454 1.049865,-1.01464 2.043903,-2.043972 2.858877,-3.264567 1.102088,-1.267937 2.274191,-2.474801 3.381639,-3.738318 1.097803,-1.212384 2.179144,-2.441064 3.25094,-3.675698 0.858261,-0.823223 1.742483,-1.613324 2.523988,-2.51308 0.815692,-0.916875 1.805654,-1.64589 2.649219,-2.537602 0.747944,-0.799845 1.419204,-1.666856 2.129194,-2.499461 1.03826,-1.070192 2.00721,-2.211187 2.89153,-3.411596 0.74246,-1.008353 1.55398,-1.95895 2.40146,-2.880662 0.75229,-0.904134 1.67359,-1.641902 2.52942,-2.44501 0.13592,-0.134943 0.27445,-0.26353 0.41115,-0.394806 1.18198,-0.41923 2.4227,-0.766542 3.67569,-0.530921 1.13774,0.204422 2.21721,0.620516 3.36802,0.759641 1.08193,0.292037 2.13917,0.684893 3.0413,1.366816 1.41694,0.736138 2.72255,1.674676 4.2148,2.276206 2.05616,1.034127 3.96541,2.31238 5.83483,3.65119 1.2151,0.859427 2.44098,1.695113 3.42792,2.828929 0.45899,0.38456 1.49811,1.476066 2.19725,1.091813 2.71378,-1.491429 5.36762,-3.091608 8.05113,-4.636819 0.95386,-0.664094 1.95778,-1.257203 2.91878,-1.911371 1.1407,-0.751946 2.2412,-1.563529 3.29451,-2.434122 0.3256,-0.09744 0.65014,-0.19401 0.97202,-0.304947 1.29185,-0.135082 2.5648,-0.45383 3.86084,-0.479202 1.2973,-0.0014 2.59352,0.0028 3.8908,-0.0028 1.29452,-0.0028 2.59148,-0.007 3.88535,0.04085 1.09654,0.05451 2.19458,0.128949 3.23733,0.506427 1.15061,0.363176 2.40032,0.380587 3.50689,0.920291 1.18173,0.31161 2.26237,0.854868 3.34624,1.41038 0.92924,0.394625 1.79016,0.878706 2.61383,1.45938 0.85852,0.662449 1.73072,1.308531 2.52942,2.042062 0.81957,0.911298 1.75174,1.712385 2.54576,2.646504 0.76875,0.839758 1.6367,1.635044 2.63016,2.202684 0.071,-0.04684 0.46454,-0.284984 0.63984,-0.394792 -0.41132,0.266756 -0.52121,0.331593 -0.63749,0.397503 0.10427,0.05952 0.20313,0.128391 0.3104,0.182424 0.37221,0.121003 1.09131,0.367177 1.48662,0.149749 3.34783,-1.841363 6.29354,-2.915708 8.8026,-5.336573 0.69253,-0.779758 1.41501,-1.534199 2.08018,-2.338826 0.88082,-1.023589 1.80516,-2.011365 2.79352,-2.932395 0.11793,-0.09814 0.23749,-0.195974 0.35396,-0.296777 0.21712,-0.115287 0.4275,-0.237795 0.66706,-0.353947 0.41972,-0.20353 0.92262,-0.255486 1.28786,-0.582668 1.11967,-0.311178 2.18956,-0.75762 3.32447,-1.026475 1.13289,-0.442385 2.32976,-0.738145 3.52321,-0.961122 1.16322,-0.235454 2.36363,-0.06831 3.54501,-0.122536 1.20307,-0.0028 2.40824,-0.0098 3.61036,0.04628 1.316,0.08365 2.62689,0.2451 3.88807,0.650739 1.07627,0.333399 2.1736,0.592286 3.26183,0.879445 0.87323,0.296945 1.78422,0.442441 2.60839,0.863107 0.79995,0.504225 1.70051,0.856123 2.41779,1.494776 0.79492,0.794255 1.54685,1.560336 1.98214,2.627447 0.42319,0.920806 0.86889,1.825749 1.27152,2.755408 0.45503,1.020354 0.64483,2.148175 1.23341,3.109367 0.50043,0.73749 1.04607,1.621424 2.05021,1.538339 0.33,-0.09479 0.64811,-0.233766 0.98563,-0.296777 0.77601,-0.144855 1.60141,-0.07486 2.36335,-0.326721 1.00204,-0.259739 2.01669,-0.409849 3.00317,-0.724247 0.88962,-0.392451 1.9559,-0.323376 2.72274,-1.026475 1.10202,-0.406377 2.11726,-1.033515 3.17199,-1.546522 1.25786,-0.539787 2.58727,-0.906113 3.92075,-1.203448 1.1647,-0.317493 2.34122,-0.570163 3.51504,-0.8386 0.32923,-0.09047 0.64858,-0.223213 0.98565,-0.277721 0.79247,-0.128112 1.62781,-0.0315 2.41506,-0.228707 1.17788,-0.201927 2.32203,-0.453927 3.52867,-0.318565 1.18538,0.02495 2.37202,0.06538 3.54501,0.253213 1.20193,0.202498 2.37918,0.436237 3.60762,0.3703 1.18651,0.06858 2.37447,0.190607 3.5096,0.566329 1.07276,0.342724 2.19494,0.533235 3.2564,0.917558 1.08599,0.355912 2.12571,0.834404 3.21012,1.198011 1.00891,0.302563 1.9829,0.732346 2.9106,1.227956 0.96108,0.353069 1.79646,0.922716 2.67917,1.429437 0.79243,0.652536 1.20123,1.583143 1.81607,2.390558 0.58733,0.740083 0.95451,1.625954 1.56285,2.352445 0.48255,0.787564 1.07391,1.50017 1.47028,2.338839 0.42007,0.997465 0.92545,1.956343 1.21706,3.005889 0.47481,1.09817 1.04242,2.152832 1.3886,3.305412 0.51032,1.198318 1.0804,2.370623 1.59824,3.564062 0.45372,1.222575 1.02422,2.397153 1.48934,3.615796 0.53473,1.152817 1.09878,2.293505 1.50296,3.501442 0.32152,1.078222 0.58572,2.171332 0.93935,3.24006 0.24128,1.124225 0.36046,2.246484 0.45469,3.392526 0.2365,1.502051 0.63699,2.965419 0.92573,4.45713 0.30227,1.27566 0.76414,2.512188 0.92573,3.819995 0.2776,1.244377 0.75394,2.408639 1.15988,3.613077 0.33701,1.167677 0.57426,2.361326 0.79232,3.555894 0.28212,1.169266 0.56252,2.332733 0.72969,3.52595 0.1522,1.240543 0.15014,2.499251 0.39479,3.730148 0.29424,1.818123 0.44115,3.642977 0.5609,5.480867 0.25883,2.65167 0.6527,5.28989 0.75419,7.95584 0.16313,2.52048 0.1618,5.03914 0.19332,7.56376 0.0568,1.32793 0.20876,2.64021 0.48193,3.94254 0.14563,1.20086 0.13578,2.4215 0.40567,3.60762 0.2429,1.16811 0.43478,2.34721 0.72153,3.50416 0.31871,0.93354 0.7031,1.84544 1.15989,2.72001 0.38246,0.95053 0.84819,1.90828 1.5329,2.67645 0.83093,0.82133 1.54872,1.74764 2.37695,2.57299 0.60209,0.73255 1.43657,1.27198 2.19998,1.81879 1.0155,0.37976 1.95091,0.96396 3.0304,1.17078 1.277,0.44982 2.49692,1.054 3.76555,1.53017 1.59872,0.57573 3.17829,1.19353 4.78657,1.74256 1.56297,0.49661 3.12191,0.9972 4.72395,1.35593 1.41481,0.4293 2.86725,0.60682 4.33188,0.77869 1.27275,0.21165 2.5256,0.29249 3.82001,0.22599 1.46294,-0.003 2.92653,-0.007 4.38903,-0.0463 1.3539,-0.0622 2.7086,-0.14888 4.03238,-0.46286 1.48593,-0.29328 3.03066,-0.1876 4.51703,-0.52005 1.42171,-0.31365 2.86021,-0.55515 4.24203,-1.02919 1.23339,-0.45613 2.52536,-0.71908 3.73832,-1.22251 1.19609,-0.26098 2.34358,-0.66932 3.52866,-0.97747 0.64097,-0.24908 1.30141,-0.41083 1.93859,-0.6698 0.53062,-0.21566 0.88202,-0.40348 1.39675,-0.65889 0.2512,-0.10539 0.51614,-0.1795 0.77327,-0.26955 1.14675,-0.545 2.32055,-0.94897 3.57768,-1.15445 1.33306,-0.39266 2.68265,-0.71388 4.00242,-1.15715 1.75592,-0.34688 3.49294,-0.81868 5.21132,-1.31237 1.80705,-0.39295 3.61899,-0.78705 5.46726,-0.94206 2.14277,-0.30588 4.24621,-0.80591 6.38482,-1.13811 0.68013,-0.1362 1.34799,-0.3335 2.0366,-0.41659 1.13704,-0.13731 2.31396,0.0208 3.44971,-0.17425 1.59165,-0.15528 3.16975,-0.4654 4.77296,-0.39207 1.2788,0.003 2.55924,0.001 3.83633,0.0763 1.33961,0.10078 2.66162,0.30422 3.98065,0.55816 1.50003,0.0703 3.01668,0.15537 4.46802,0.57178 1.54591,0.41882 3.14983,0.63433 4.69128,1.08364 1.68942,0.52318 3.21385,1.3607 4.86825,1.96582 1.35927,0.48037 2.68076,1.06839 3.99969,1.64998 1.20195,0.43884 2.38757,0.91992 3.59131,1.35047 1.16942,0.42495 2.38786,0.70754 3.57494,1.07821 1.15081,0.4356 2.29197,0.88492 3.48239,1.20345 0.99955,0.42816 1.97429,0.90764 2.98683,1.30419 1.18731,0.594 2.49195,0.93482 3.73288,1.39948 1.03444,0.44699 2.02412,0.97244 3.06308,1.39677 1.05896,0.48158 2.12552,0.92962 3.1856,1.41038 1.0664,0.53034 2.14621,1.02485 3.21827,1.54379 1.13862,0.49079 2.14129,1.20607 3.12843,1.94949 0.84543,0.58379 1.48911,1.41478 2.4178,1.87868 0.87865,0.71467 1.47887,1.66667 2.28165,2.45863 0.80898,0.72356 1.51855,1.56144 2.21904,2.38783 0.68656,0.74068 1.29779,1.52461 1.4022,2.5621 0.15476,1.01875 0.0502,2.05135 -0.36484,3.00319 -0.0645,0.10915 -0.13536,0.19644 -0.2015,0.29406 -0.14817,0.0505 -0.29819,0.0997 -0.44652,0.14974 -1.17542,0.4908 -2.38933,0.90959 -3.48238,1.5683 -0.92876,0.42517 -1.86248,0.87462 -2.88066,1.04824 -1.08577,0.26135 -2.14326,0.62624 -3.2101,0.95025 -1.09617,0.45746 -2.31784,0.60409 -3.49055,0.72969 -1.3809,0.1952 -2.73318,0.55536 -4.13312,0.58812 -1.3488,0.18172 -2.67092,0.52549 -4.04054,0.49009 -1.36316,0.0804 -2.70872,0.2905 -4.04599,0.56633 -1.43511,0.0676 -2.8981,0.11235 -4.29103,0.49008 -0.96381,0.31279 -2.02961,0.30118 -2.89155,0.91213 -1.21912,0.34207 -2.24651,1.05661 -3.44154,1.46755 -1.3702,0.41577 -2.73624,0.83351 -4.10317,1.24429 -1.00042,0.38409 -1.89118,0.97963 -2.9106,1.3287 -0.99564,0.55579 -2.13948,0.82393 -3.12571,1.41582 -0.55903,0.31854 -1.11787,0.63764 -1.6772,0.95568 -1.67013,1.00673 -3.36188,1.97726 -5.05613,2.94329 -0.48369,0.24067 -1.39088,0.71181 -1.0428,0.57721 -0.0199,0.005 -0.04,0.0112 -0.06,0.0163 0.79845,-0.45913 1.82338,-1.05484 2.89427,-1.67721 -0.99963,0.56916 -1.99991,1.13757 -2.99773,1.70989 -1.57626,0.45108 -3.13487,0.96236 -4.75117,1.26879 -1.71636,0.45435 -3.46587,0.78023 -5.17321,1.2688 -1.52553,0.47342 -3.11316,0.73424 -4.60143,1.33142 -1.57956,0.6402 -3.21268,1.15052 -4.78658,1.79972 -1.34628,0.70424 -2.80046,1.15579 -4.16033,1.83513 -1.22909,0.43291 -2.33773,1.11081 -3.53413,1.62003 -1.30086,0.65601 -2.7033,1.02302 -4.00241,1.67993 -1.47325,0.56575 -2.95123,1.05945 -4.46801,1.50023 -1.77949,0.4508 -3.48966,1.11946 -5.25761,1.61458 -1.78751,0.61164 -3.54669,1.31428 -5.41553,1.66088 -1.56145,0.39079 -3.13563,0.71823 -4.66132,1.24429 -1.70602,0.60682 -3.45035,1.10065 -5.08063,1.91135 -1.82526,0.8176 -3.5079,1.8845 -5.37197,2.61111 -2.02961,0.85174 -4.01265,1.80921 -6.04446,2.65466 -1.92947,0.8688 -3.88728,1.66838 -5.84846,2.46137 -2.45065,1.11314 -4.98796,2.02718 -7.48481,3.0304 -1.71405,0.56421 -3.42286,1.10424 -5.08334,1.81879 -1.62612,0.72695 -3.35784,1.20237 -5.03435,1.80245 -4.27131,1.58554 -7.89874,3.18033 -11.80306,6.12616 -0.51649,0.31072 -1.02107,0.63545 -1.52474,0.96657 -0.16331,0.10735 -0.65732,0.42321 -0.48737,0.32673 3.01606,-1.71204 17.22655,-9.92713 -1.10542,0.6589 1.71611,-0.98793 3.43274,-1.97683 5.1487,-2.96506 -2.28228,1.32283 -4.56896,2.63876 -6.8368,3.98609 -0.33112,0.1967 -0.62518,0.45068 -0.92301,0.70247 -0.44678,0.19112 -0.90141,0.36939 -1.36682,0.51733 -1.95261,0.88461 -3.97285,1.63775 -5.8076,2.76357 -1.66808,0.74782 -3.28726,1.60149 -5.00167,2.24626 -1.78795,0.58761 -3.58486,1.1443 -5.35835,1.7725 -1.99861,0.70757 -3.97249,1.5057 -5.85932,2.47497 -2.16821,0.92013 -4.42368,1.58017 -6.64893,2.3225 -4.32077,1.7099 -8.01657,4.81221 -12.22509,6.68975 -1.40317,0.8535 -2.76918,1.76094 -4.14673,2.65467 -1.38449,0.98735 -2.75585,1.99134 -4.08956,3.04675 -1.13415,0.89677 -2.25883,1.80451 -3.41431,2.67374 -0.78886,0.62317 -1.5677,1.25845 -2.39056,1.83511 -2.36392,1.3166 -4.70095,2.65799 -6.90486,4.2502 -0.86614,0.59632 -1.67424,1.2524 -2.33339,2.08017 -0.81596,0.97437 -1.63296,1.94682 -2.46136,2.9106 -0.99286,1.03299 -2.06057,1.99026 -3.0549,3.02225 -1.14314,1.07214 -2.33237,2.10625 -3.34353,3.30813 -1.10356,1.35778 -2.22944,2.70108 -3.41431,3.9888 -0.99993,1.13003 -1.92938,2.3143 -2.89972,3.46876 -0.91849,1.01907 -1.80443,2.06828 -2.66828,3.13388 -0.881,1.16534 -1.84204,2.2684 -2.65467,3.48511 -0.78269,1.02921 -1.62191,2.01773 -2.33611,3.09574 -0.68762,1.07551 -1.36219,2.16485 -1.91681,3.3163 -0.56503,1.07223 -1.14792,2.14026 -1.49205,3.31085 -0.35272,1.25463 -0.49328,2.53133 -0.43836,3.83633 0.12212,2.01026 0.69624,3.93972 1.26062,5.86478 l 7.75709,-4.27198 c -0.64008,-1.82425 -1.14894,-3.69033 -1.15173,-5.63061 0.004,-1.2288 0.14059,-2.41946 0.59629,-3.56406 0.33551,-1.16022 1.07362,-2.12064 1.5465,-3.21556 0.56911,-1.11998 1.29964,-2.14371 1.93587,-3.22372 0.81504,-0.99085 1.65351,-1.97017 2.36334,-3.0413 0.8392,-1.18952 1.78135,-2.29438 2.65195,-3.4606 0.91769,-1.00285 1.77695,-2.05736 2.70367,-3.05491 0.8863,-1.22064 1.87043,-2.3633 2.88883,-3.47422 1.14868,-1.32389 2.33202,-2.63653 3.38436,-4.04054 1.10802,-1.09561 2.3145,-2.08747 3.39797,-3.20739 1.01496,-1.02651 2.07777,-1.98945 3.04947,-3.06034 0.82441,-0.96008 1.55533,-2.03998 2.47497,-2.91333 0.63291,-0.8325 1.57142,-1.32438 2.4178,-1.91137 0.11263,-0.081 0.25695,-0.16622 0.37845,-0.25048 -1.53803,0.88189 -3.4547,1.98387 -2.60293,1.46754 0.087,-0.0527 0.0949,-0.055 0.17969,-0.10622 0.98204,-0.5531 1.9558,-1.12321 2.92695,-1.69627 0.13965,-0.0934 0.2691,-0.17677 0.41113,-0.26956 1.08193,-0.62422 1.90061,-1.09216 2.34701,-1.32051 0.41089,-0.2342 0.81298,-0.48358 1.22795,-0.71064 0.61213,-0.33495 0.278,-0.13035 -0.49282,0.324 0.64597,-0.29543 0.38176,-0.0897 1.96854,-1.2933 1.01035,-0.69403 1.95976,-1.49744 2.90789,-2.28437 1.18093,-0.81196 2.24365,-1.7845 3.39526,-2.64106 1.34519,-1.03485 2.68703,-2.09048 4.11949,-3.00318 0.0721,-0.0464 0.14583,-0.0898 0.21782,-0.13619 0.33635,-0.16881 0.70966,-0.36965 0.99925,-0.50643 2.18983,-0.8818 4.46888,-1.51735 6.67343,-2.36605 1.91185,-0.89138 3.84353,-1.7292 5.81578,-2.4777 1.75265,-0.67467 3.55783,-1.19227 5.33655,-1.79155 1.73796,-0.59442 3.40127,-1.37979 5.05886,-2.16459 1.89066,-1.0297 3.83843,-1.93079 5.81304,-2.78536 1.6551,-0.62603 3.26223,-1.3624 4.84647,-2.14824 1.27506,-0.63752 1.61456,-0.81618 1.94131,-1.00741 -0.28561,0.15324 -0.40068,0.20461 -0.0163,-0.0463 2.62375,-1.71286 5.4181,-3.1484 8.09742,-4.77296 0.363,-0.22011 0.64843,-0.54815 0.9938,-0.79504 0.16809,-0.12882 0.34064,-0.2549 0.50644,-0.38664 0.10636,-0.0844 0.31098,-0.22671 0.49552,-0.35666 0.68208,-0.29775 1.38988,-0.61275 1.98761,-0.83589 1.67897,-0.59689 3.36685,-1.16402 5.03978,-1.77794 1.68281,-0.67812 3.37116,-1.33179 5.09425,-1.90049 2.53238,-0.93384 5.05004,-1.91434 7.53654,-2.96505 1.9448,-0.81511 3.90335,-1.59856 5.83481,-2.44503 2.02983,-0.85816 4.02793,-1.78883 6.0472,-2.67099 1.85633,-0.71505 3.58217,-1.69739 5.3638,-2.57027 1.6225,-0.77801 3.29984,-1.42233 5.00984,-1.9767 1.51786,-0.51693 3.06137,-0.94111 4.62048,-1.31237 1.86396,-0.40273 3.68631,-0.9512 5.47815,-1.59824 1.7374,-0.54258 3.45588,-1.1456 5.20316,-1.65543 1.51293,-0.45247 3.03673,-0.86409 4.51429,-1.424 1.32275,-0.5883 2.68817,-1.06698 4.02421,-1.62275 1.18849,-0.50746 2.32695,-1.12174 3.50416,-1.65269 1.40113,-0.60428 2.80786,-1.19847 4.20936,-1.80245 1.55492,-0.69807 3.15671,-1.2785 4.75663,-1.86236 1.47186,-0.60583 3.01868,-0.97916 4.5524,-1.38859 1.70223,-0.50013 3.43412,-0.88939 5.1596,-1.29874 1.65568,-0.38517 3.30528,-0.78675 4.93087,-1.28514 1.95661,-0.73299 3.79558,-1.81071 5.59795,-2.91606 l 2.92967,-1.72076 c -0.68209,0.3926 -1.26731,0.73257 -2.10195,1.21161 0.66352,-0.40981 1.32793,-0.79591 1.98759,-1.18438 0.13299,-0.0658 0.26666,-0.13161 0.40024,-0.19605 0.0112,-0.007 0.0191,-0.01 0.0299,-0.0163 l 1.39133,-0.81682 c 0.0651,-0.0228 -0.61244,0.36741 -1.39133,0.81682 0.69373,-0.33418 1.39295,-0.65463 2.11012,-0.93663 0.96978,-0.44637 1.95292,-0.85571 2.90244,-1.34502 1.31355,-0.55395 2.69343,-0.9186 4.05145,-1.3423 1.21111,-0.32007 2.29561,-0.94719 3.44152,-1.42673 0.93047,-0.40713 1.85942,-0.74865 2.85344,-0.96385 1.36357,-0.43371 2.78448,-0.55992 4.2039,-0.65345 1.35778,-0.12715 2.69502,-0.39791 4.05144,-0.54183 1.37124,-0.0251 2.71896,-0.23166 4.07049,-0.44109 1.39148,-0.11794 2.76234,-0.35736 4.13857,-0.58538 1.20622,-0.11 2.38508,-0.34014 3.56406,-0.6099 1.05408,-0.355 2.12114,-0.66121 3.18559,-0.98291 1.00172,-0.24513 2.0121,-0.5095 2.9569,-0.92845 1.1321,-0.61096 2.32035,-1.09148 3.49872,-1.60368 0.55516,-0.26316 1.16804,-0.41076 1.70444,-0.71608 1.75253,-0.99755 3.49548,-2.01021 5.24125,-3.01952 -1.31948,0.76526 -2.63915,1.53033 -3.95885,2.29525 3.07602,-1.55143 5.94777,-3.48999 8.98231,-5.10511 2.4144,-1.28505 -4.74177,2.72553 -7.09817,4.11405 -0.33166,0.19544 0.70231,-0.313 1.05915,-0.45743 3.00453,-1.53431 8.42571,-2.95514 9.73378,-6.72788 0.32625,-1.15489 0.35925,-2.31304 0.13341,-3.48238 -0.15045,-1.18711 -0.89622,-2.11081 -1.6527,-2.98684 -0.7083,-0.85829 -1.46177,-1.68549 -2.2626,-2.45864 -0.80787,-0.79865 -1.45773,-1.72092 -2.3007,-2.48585 -0.89824,-0.54424 -1.62211,-1.30256 -2.44774,-1.94132 -1.03435,-0.76552 -2.09024,-1.4968 -3.23735,-2.08289 -1.08548,-0.4823 -2.12624,-1.04976 -3.20465,-1.54651 -1.04884,-0.50689 -2.1378,-0.92787 -3.19106,-1.424 -1.04803,-0.43467 -2.05087,-0.9608 -3.09574,-1.40221 -1.23288,-0.46536 -2.48199,-0.88955 -3.70021,-1.39404 -0.99506,-0.45039 -2.0072,-0.86336 -3.00317,-1.31235 -1.16006,-0.44255 -2.35069,-0.78742 -3.50961,-1.23612 -1.18431,-0.41265 -2.39406,-0.74639 -3.59403,-1.11089 -1.20167,-0.41095 -2.38867,-0.86902 -3.57494,-1.32325 -1.33582,-0.55925 -2.67219,-1.12004 -4.02421,-1.63909 -1.66935,-0.57555 -3.22884,-1.39492 -4.89275,-1.98488 -1.55203,-0.45808 -3.13243,-0.80299 -4.71034,-1.15443 -1.48689,-0.43515 -3.02726,-0.58947 -4.56604,-0.69974 -1.32228,-0.14245 -2.62508,-0.40448 -3.94796,-0.54727 -1.29284,-0.12602 -2.5933,-0.12505 -3.8908,-0.13341 -1.62901,-0.0899 -3.23592,0.15612 -4.84919,0.33217 -1.86434,0.157 -3.71666,0.21139 -5.55983,0.54999 -2.12218,0.35172 -4.22539,0.81506 -6.34943,1.15444 -1.83959,0.22947 -3.67491,0.49069 -5.48632,0.88761 -1.73399,0.45541 -3.4717,0.90309 -5.21677,1.31508 -1.33359,0.36786 -2.68042,0.69078 -4.00786,1.08093 -1.23726,0.31604 -2.47111,0.60334 -3.65937,1.07821 -1.35377,0.55593 -2.67728,1.16604 -4.06504,1.63363 -1.1376,0.40694 -2.30738,0.71501 -3.46876,1.04553 -1.26765,0.38806 -2.53534,0.78127 -3.80093,1.17896 -1.34724,0.53892 -2.77914,0.76425 -4.18213,1.09726 -1.46517,0.36402 -2.97539,0.43079 -4.47075,0.57722 -1.32167,0.24329 -2.64536,0.42992 -3.98608,0.52277 -1.45022,0.0835 -2.90428,0.0831 -4.35638,0.0843 -1.25261,-4.2e-4 -2.5023,0.0406 -3.74648,-0.11975 -1.43428,-0.19964 -2.86966,-0.34744 -4.28014,-0.68342 -1.58396,-0.38815 -3.15581,-0.81882 -4.70763,-1.32052 -1.60365,-0.5301 -3.18643,-1.11639 -4.76751,-1.70987 -1.25438,-0.48527 -2.48622,-1.02496 -3.72743,-1.54107 -1.04354,-0.29211 -2.023,-0.72587 -3.01134,-1.15989 -0.70648,-0.37922 -1.41752,-0.88038 -1.96583,-1.473 -0.85004,-0.83011 -1.60526,-1.74578 -2.42051,-2.60839 -0.60979,-0.67474 -1.02476,-1.52655 -1.34502,-2.37422 -0.44396,-0.8635 -0.84608,-1.75219 -1.14628,-2.67646 -0.21248,-1.13799 -0.451,-2.26942 -0.67795,-3.40613 -0.2517,-1.17624 -0.18034,-2.38485 -0.38393,-3.56408 -0.28622,-1.26674 -0.40188,-2.55639 -0.47103,-3.84994 -0.0428,-2.51729 -0.1019,-5.02489 -0.28044,-7.53654 -0.10497,-2.67705 -0.48599,-5.3292 -0.73513,-7.993963 -0.0683,-1.86941 -0.24261,-3.712054 -0.52277,-5.559829 -0.23417,-1.234493 -0.1613,-2.502569 -0.37574,-3.735599 -0.16796,-1.21842 -0.49079,-2.396065 -0.76781,-3.591289 -0.20095,-1.21414 -0.44603,-2.427305 -0.81682,-3.602175 -0.41329,-1.177993 -0.88267,-2.314249 -1.12177,-3.545006 -0.14245,-1.317289 -0.66093,-2.546081 -0.96112,-3.828181 -0.28924,-1.469208 -0.67487,-2.910522 -0.87401,-4.397212 -0.0299,-1.176738 -0.21871,-2.307919 -0.46013,-3.45516 -0.38927,-1.081665 -0.65621,-2.19726 -0.98564,-3.297229 -0.43471,-1.241255 -1.02372,-2.414787 -1.57102,-3.607626 -0.43953,-1.202724 -1.02455,-2.343426 -1.45121,-3.550457 -0.53586,-1.202431 -1.11172,-2.386111 -1.62003,-3.602176 -0.33291,-1.157612 -0.91937,-2.210587 -1.3777,-3.316299 -0.27371,-1.052321 -0.80371,-2.000199 -1.2089,-3.000452 -0.40019,-0.891949 -1.02628,-1.641442 -1.54107,-2.46408 -0.60415,-0.76459 -1.02025,-1.649025 -1.59826,-2.431404 -0.62669,-0.864208 -1.14178,-1.77817 -1.91407,-2.523982 -0.89067,-0.652718 -1.8418,-1.222728 -2.84527,-1.68265 -0.95864,-0.480484 -1.9389,-0.91123 -2.946,-1.279689 -1.07637,-0.366953 -2.13404,-0.773623 -3.19376,-1.184391 -1.08574,-0.37101 -2.1876,-0.680223 -3.29997,-0.958404 -1.17414,-0.382372 -2.38459,-0.594447 -3.61035,-0.713359 -1.19821,-0.04015 -2.37869,-0.108039 -3.56134,-0.307665 -1.19404,-0.219715 -2.40469,-0.300416 -3.61579,-0.348511 -1.22303,-0.08336 -2.42547,-0.0237 -3.63214,0.176974 -1.13004,0.238117 -2.29537,0.226658 -3.4252,0.451976 -1.19192,0.253396 -2.36802,0.566985 -3.55317,0.849502 -1.34708,0.285095 -2.65715,0.684209 -3.96431,1.11087 -1.08553,0.451125 -2.13703,0.980959 -3.18833,1.505676 -0.86389,0.459113 -1.71591,0.854603 -2.67101,1.080926 -0.95704,0.39174 -1.9805,0.533374 -2.97594,0.784149 -1.08903,0.337162 -2.23559,0.371442 -3.34081,0.62078 -0.77187,0.290909 -1.00494,-0.0513 -1.44033,-0.653457 -0.52371,-0.927498 -0.72683,-1.988001 -1.16533,-2.956887 -0.40486,-0.933451 -0.83499,-1.853575 -1.27424,-2.771746 -0.51278,-1.127264 -1.27523,-2.025334 -2.14279,-2.888831 -0.74587,-0.696324 -1.63146,-1.211646 -2.52399,-1.693537 -0.81824,-0.555679 -1.79541,-0.711422 -2.71456,-1.015588 -1.0963,-0.325718 -2.20261,-0.612333 -3.31085,-0.895784 -1.29671,-0.40961 -2.62782,-0.658628 -3.97792,-0.797754 -1.2132,-0.10274 -2.43185,-0.102043 -3.64846,-0.106226 z m 80.50862,202.209548 c 1.37955,-0.74019 8.85619,-5.17188 6.93208,-4.07049 -5.79605,3.3178 -6.35143,3.73067 -6.93208,4.07049 z m -49.09368,24.60538 c -0.12909,0.0592 -0.5051,0.26896 -0.73514,0.38664 -0.92206,0.52551 -1.84414,1.05073 -2.75813,1.59008 -0.17182,0.11486 -0.34175,0.22258 -0.50371,0.3349 1.60263,-0.91895 2.85046,-1.63582 3.99698,-2.31162 z m 161.86403,-72.06269 c 1.08826,-0.61962 2.17596,-1.24062 3.26457,-1.85963 0.0692,-0.0419 0.14042,-0.0805 0.20964,-0.12254 1.53536,-0.93013 -0.88796,0.47911 -3.47421,1.98216 z M 183.07609,43.880435 c 0,0 -0.003,-0.0028 -0.003,-0.0028 -0.10135,0.06677 -0.0657,0.04154 0.003,0.0028 z M 413.27812,179.02079 c -3.42013,1.91721 -7.39914,4.2328 -6.86676,3.93164 2.29706,-1.29508 4.57827,-2.62151 6.86676,-3.93164 z m -3.21284,3.33807 c -0.38191,0.22104 -2.35785,1.38494 -1.7725,1.03193 0.56985,-0.34366 1.15037,-0.66927 1.72349,-1.00742 0.0163,-0.008 0.0328,-0.0163 0.0491,-0.0246 z m -104.26996,39.28911 c -0.67841,0.40745 -1.36945,0.79291 -2.05567,1.18712 -0.0739,0.0353 -0.14685,0.0732 -0.22054,0.10887 2.02991,-1.17838 3.54698,-2.05924 2.27621,-1.29603 z"
     id="path4235"
     inkscape:connector-curvature="0" />
</svg>
