<?xml version="1.0" encoding="UTF-8" standalone="no"?>
<!-- Created with Inkscape (http://www.inkscape.org/) -->

<svg
   xmlns:dc="http://purl.org/dc/elements/1.1/"
   xmlns:cc="http://creativecommons.org/ns#"
   xmlns:rdf="http://www.w3.org/1999/02/22-rdf-syntax-ns#"
   xmlns:svg="http://www.w3.org/2000/svg"
   xmlns="http://www.w3.org/2000/svg"
   xmlns:sodipodi="http://sodipodi.sourceforge.net/DTD/sodipodi-0.dtd"
   xmlns:inkscape="http://www.inkscape.org/namespaces/inkscape"
   id="svg3390"
   version="1.1"
   inkscape:version="0.91 r13725"
   width="813.80219"
   height="649.40887"
   viewBox="0 0 813.80219 649.40887"
   sodipodi:docname="bizkit.svg">
  <metadata
     id="metadata3396">
    <rdf:RDF>
      <cc:Work
         rdf:about="">
        <dc:format>image/svg+xml</dc:format>
        <dc:type
           rdf:resource="http://purl.org/dc/dcmitype/StillImage" />
        <dc:title></dc:title>
      </cc:Work>
    </rdf:RDF>
  </metadata>
  <defs
     id="defs3394" />
  <sodipodi:namedview
     pagecolor="#ffffff"
     bordercolor="#666666"
     borderopacity="1"
     objecttolerance="10"
     gridtolerance="10"
     guidetolerance="10"
     inkscape:pageopacity="0"
     inkscape:pageshadow="2"
     inkscape:window-width="1200"
     inkscape:window-height="1881"
     id="namedview3392"
     showgrid="false"
     fit-margin-top="0"
     fit-margin-left="0"
     fit-margin-right="0"
     fit-margin-bottom="0"
     inkscape:zoom="0.41291585"
     inkscape:cx="542.49242"
     inkscape:cy="163.77458"
     inkscape:window-x="1200"
     inkscape:window-y="0"
     inkscape:window-maximized="1"
     inkscape:current-layer="svg3390" />
  <path
     style="opacity:0.77999998;fill:#000000;fill-opacity:1;stroke:#000000;stroke-width:4;stroke-miterlimit:4;stroke-dasharray:none;stroke-dashoffset:0"
     d="m 280.78788,93.416028 c 46.50396,-48.172494 18.86803,-17.90364 34.4598,-30.34984 60.85904,-25.747962 80.00363,-42.063223 155.65691,-56.5311224 66.43562,-9.296718 160.24703,-3.671943 201.58858,12.3031164 27.73602,24.658617 43.34142,33.314656 75.22082,75.177396 26.0344,42.647602 20.2425,28.796772 34.3902,50.466262 30.2952,61.33412 37.609,133.63472 21.016,197.03723 -20.4932,32.30287 -34.7208,78.42035 -66.9734,98.547 -26.4034,-0.90486 25.2666,-35.11969 -3.7739,10.00535 -5.727,66.525 8.7285,134.10172 37.5377,194.11066 -33.6827,20.10875 -35.9545,-59.37846 -47.3603,-83.33421 -4.086,-45.08933 -22.1285,-101.04203 12.2042,-138.56332 65.6586,-69.97205 -23.866,32.72269 10.2197,-1.50797 26.0249,-40.24706 54.936,-81.63475 53.8241,-132.10088 11.8517,-52.50192 -4.0853,-99.86264 -29.5593,-150.67672 C 717.83989,88.276538 761.22379,85.089738 635.41185,21.474208 554.12851,5.3191176 403.59641,19.559996 372.3791,42.512785 c -25.50323,11.990423 -52.90667,22.566023 -57.56231,24.117673 -20.97752,11.47744 18.70524,-13.60157 -9.48655,11.19995 -4.51731,10.31168 -15.94865,11.12607 -24.54236,15.58562 z"
     id="path3416"
     inkscape:connector-curvature="0"
     sodipodi:nodetypes="cccccccccccccccccccc" />
  <path
     style="opacity:0.83399999;fill:#000000;stroke:#000000;stroke-width:4;stroke-miterlimit:4;stroke-dasharray:none;stroke-dashoffset:0"
     d="m 296.67731,94.235018 c -3.62109,0.0132 -7.13156,0.50536 -10.4629,1.74219 15.20312,1.18846 30.00903,5.826152 45.28516,6.013672 -9.30358,29.21827 -33.22048,60.36932 -32.56055,94.5918 l -0.91108,12.06969 4.91499,-14.10876 c 0.37893,-34.34862 21.09357,-63.61113 33.6543,-94.19531 -12.64414,-0.0963 -26.98748,-6.160562 -39.91992,-6.113282 z m -0.50782,127.138672 c -23.85402,29.87618 -49.56284,58.17461 -63.58593,95.18555 -17.73014,23.33515 16.61028,40.81838 36.65234,43.06055 10.68611,17.59355 -26.58248,38.36148 -6.7793,56.02343 24.51569,4.32912 0.30848,1.83519 -0.44531,20.39649 4.09107,17.16502 22.3437,25.00337 11.76953,44.38672 -10.65053,24.85917 -8.18262,53.8176 12.46875,72.64258 39.76832,14.41285 84.57506,0.53336 124.58789,9.96679 25.94679,15.69891 20.3517,46.68592 25.64453,71.54102 2.31192,-1.93452 8.9985,-2.04384 4.48438,-6.85352 -2.48461,-24.26375 -0.78511,-53.05672 -24.77149,-68.13086 -27.13612,-7.10718 -57.47355,-2.06079 -85.83984,-3.33008 -28.64864,5.55603 -56.43253,-14.88909 -57.25391,-43.83203 -4.41637,-20.9254 22.22234,-49.51017 0.45508,-63.88086 -11.24563,-15.52962 -0.26008,-32.85421 3.87696,-31.04101 -26.28789,-7.85268 -9.06071,-34.98457 0.11328,-51.01758 0.24392,-22.42353 -39.46849,-9.40685 -43.25977,-33.87305 -2.15847,-18.71674 14.19377,-36.99997 23.41992,-52.93359 12.6277,-26.68013 23.92016,-23.35429 47.87332,-72.61487 -3.33355,-34.97218 -8.96871,4.12333 -9.41043,14.30432 z"
     id="path3404"
     inkscape:connector-curvature="0"
     sodipodi:nodetypes="sccccccscccccccccccccccccccc" />
  <path
     style="opacity:0.77999998;fill:#000000;fill-opacity:1;stroke:#000000;stroke-width:4;stroke-miterlimit:4;stroke-dasharray:none;stroke-dashoffset:0"
     d="m 118.80231,62.264318 c -0.86334,0.008 -1.72729,-0.0178 -2.58985,0.0234 -0.89333,0.0836 -1.75166,0.34023 -2.60937,0.5879 -0.7817,0.27325 -1.58311,0.47116 -2.36524,0.74218 -0.62953,0.20797 -1.22976,0.4957 -1.82031,0.79492 -0.57962,0.26372 -1.14483,0.55906 -1.70898,0.85547 -2.48472,1.1514 -4.83844,2.67396 -7.18555,4.02735 12.05264,-6.97388 1.21375,-0.71063 -0.619139,0.38867 -0.0713,0.0427 -0.55131,0.52355 -0.59961,0.56445 -0.77286,0.65505 0.0689,-0.15968 -0.64649,0.56055 -0.29078,0.27851 -0.55771,0.57995 -0.82421,0.88086 -0.30591,-0.24422 -0.58284,-0.53149 -0.84571,-0.80469 -0.57319,-0.66178 -1.2229,-1.24942 -1.81445,-1.89453 -0.55711,-0.59441 -1.24046,-1.04277 -1.87109,-1.55273 -0.60939,-0.46947 -1.26518,-0.84818 -1.95704,-1.17969 -0.80944,-0.38153 -1.60448,-0.78839 -2.45312,-1.07617 -0.81709,-0.31741 -1.66857,-0.49712 -2.52148,-0.68164 -0.78155,-0.26479 -1.58493,-0.39339 -2.4043,-0.45899 -0.93443,-0.058 -1.87076,-0.0595 -2.80664,-0.0625 -0.93288,-0.003 -1.86596,0.003 -2.79883,0.004 -0.94575,-0.0441 -1.87455,0.15518 -2.80664,0.27929 -0.77403,0.10006 -1.51845,0.34933 -2.24609,0.62305 -0.72832,0.36605 -1.72559,0.91885 -2.6875,1.45117 0.37918,-0.2191 0.33949,-0.19334 0.78124,-0.44922 -2.83203,1.36428 -5.2302,2.72515 -7.46679,4.72657 -0.0824,0.0603 -0.16414,0.12088 -0.2461,0.18164 -0.12195,-0.0754 -0.24232,-0.16738 -0.36132,-0.25 -0.75816,-0.77665 -1.60529,-1.43029 -2.5,-2.03906 -1.38851,-0.93611 -2.77067,-1.87945 -4.24414,-2.67774 -1.03488,-0.47634 -1.99732,-1.06947 -2.97657,-1.64453 -0.68811,-0.49887 -1.45755,-0.82683 -2.25976,-1.0918 -0.81885,-0.17305 -1.62312,-0.40557 -2.4375,-0.59765 -1.03726,-0.2855 -2.0422,-0.0573 -3.05469,0.20898 -3.17585,1.1032 -6.00438,3.05709 -8.85547,4.79297 13.08054,-7.59551 -0.52814,0.30631 -0.82422,0.48242 -0.51743,0.30778 -0.83685,0.85054 -1.3125,1.20703 -0.37222,0.46941 -0.92144,0.76107 -1.30078,1.21875 -0.83525,1.00773 0.31789,-0.2496 -0.49414,0.61719 -0.63531,0.64062 -1.14644,1.37633 -1.67187,2.10938 -0.62685,0.86448 -1.41074,1.59496 -2.1211,2.38476 -0.4507,0.64227 -0.97005,1.23849 -1.54101,1.77734 -0.38906,0.47046 -0.95034,0.75553 -1.35352,1.20704 -1.02361,1.14631 0.43848,-0.36489 -0.54102,0.63086 -0.56142,0.63525 -1.20627,1.17166 -1.8125,1.77343 -0.67739,0.94516 -1.5011,1.80088 -2.29296,2.66016 -0.79643,0.9139 -1.64638,1.7749 -2.42774,2.70312 -0.50851,0.93384 -1.33726,1.56287 -2.07812,2.29493 -0.75114,0.73268 -1.35411,1.59706 -1.95118,2.45507 -0.61806,0.59345 -0.97497,1.3747 -1.34179,2.13282 -0.0409,0.11751 -0.0701,0.24095 -0.12305,0.35351 -0.21844,0.46384 -0.13111,0.0593 -0.31055,0.5625 -0.15834,0.44402 -0.26162,0.8871 -0.44531,1.32617 -0.32848,0.89568 -0.66808,1.79068 -1.0664,2.65821 -0.24643,0.76143 -0.62752,1.45168 -0.81641,2.232422 -0.40648,0.7295 -0.58291,1.56266 -0.94141,2.30859 -0.19076,0.54534 -0.5523203,0.96771 -0.9726503,1.34961 l 0.8066403,-0.33594 c 0.18476,1.14843 1.69968,2.47163 1.35351,3.55079 -0.3241,0.84916 -0.28107,1.76837 -0.47461,2.64062 -0.0926,0.80098 -0.35743,1.54449 -0.56445,2.31641 -0.31892,0.77535 -0.6652703,1.52787 -0.8710903,2.34375 -0.21596,1.00177 -0.80463,1.8666 -1.14063,2.83789 -0.20299,0.77823 -0.52391,1.5144 -0.85547,2.24218 -0.30376,0.71417 -0.24914,1.50083 -0.41992,2.24219 -0.20754,0.84144 -0.28869,1.70357 -0.33789,2.56641 -0.22353,0.72155 -0.3387,1.46252 -0.4043,2.21289 -0.0572,0.83779 -0.0585,1.67824 -0.0605,2.51758 0.0825,0.77695 -0.16371,1.50834 -0.28516,2.26562 -0.11206,0.81071 -0.12452,1.63028 -0.13672,2.44727 -0.008,0.85547 -0.007,1.71091 -0.006,2.5664 -0.002,0.89673 0.006,1.79274 0.008,2.68946 -0.002,0.98955 9.5e-4,1.9792 0.002,2.96875 -0.001,0.96008 -0.005,1.92078 -0.006,2.88086 -0.1693,1.03387 -0.28237,2.07242 -0.35547,3.11718 -0.061,0.96136 -0.0712,1.92573 -0.0762,2.88868 0.0199,0.87438 -0.0599,1.75252 0.0703,2.61914 0.17214,0.84198 0.26987,1.69387 0.32227,2.55078 0.041,0.84915 0.04,1.70086 0.041,2.55078 0.14424,0.86249 0.28723,1.72191 0.36133,2.59375 0.0817,0.85894 0.004,1.72547 0.13477,2.57812 0.1727,0.84247 0.26891,1.69329 0.32031,2.55079 -0.0313,0.88118 0.11066,1.7338 0.25781,2.59765 0.14082,0.83616 0.17567,1.68524 0.19727,2.53125 0.0384,0.90954 0.25119,1.7993 0.34179,2.70703 0.0205,1.04993 0.16358,2.0804 0.31641,3.11719 0.13988,0.92111 0.17752,1.85337 0.20312,2.7832 0.017,0.96532 0.0128,1.93107 0.01,2.89649 0.003,0.87624 0.0802,1.73332 0.0566,2.61133 -0.0303,0.85594 -0.0457,1.71197 -0.0547,2.56836 0.0144,0.86914 -0.0676,1.74385 0.0605,2.60546 0.19447,1.03703 0.27848,2.08647 0.33008,3.13868 0.0441,1.26839 0.0487,2.53956 0.0488,3.80859 -0.004,1.08594 -0.0116,2.17187 -0.0156,3.25781 -0.005,0.95199 -0.002,1.9035 0.004,2.85547 -0.0163,1.1604 -0.0208,2.3091 0.14062,3.45899 0.15049,0.90389 0.22307,1.81579 0.25977,2.73046 0.0255,0.85108 0.0236,1.70331 0.0234,2.55469 -0.001,0.85512 -0.003,1.70933 -0.004,2.56446 -0.15182,0.97855 -0.29277,1.95663 -0.35547,2.94531 -0.0563,1.01527 -0.0713,2.03219 -0.0703,3.04883 0.009,1.1167 -1e-4,2.23289 0.004,3.3496 0.0226,1.02058 -0.21994,2.02332 -0.33203,3.03516 0.0109,0.81238 -0.16153,1.57392 -0.33008,2.35938 -0.0572,0.91369 -0.24137,1.79955 -0.40624,2.69726 -0.34171,0.84016 -0.40391,1.75313 -0.64454,2.61719 -0.38765,0.93071 -0.62895,1.9098 -1.0332,2.83594 -0.29619,0.91482 -0.61336,1.79895 -0.99805,2.67968 -0.27501,0.77947 -0.53695,1.56487 -0.875,2.32032 -0.43593,0.71342 -0.68532,1.51316 -1.00781,2.27929 -0.12606,0.71807 -0.4598,1.25658 -0.8125,1.86719 -0.10065,0.34418 -0.28139,0.60851 -0.51758,0.86914 l 5.84375,-2.53515 c 0.17389,-0.30568 0.32931,-0.62046 0.5,-0.92774 0.35114,-0.60944 0.52032,-1.28251 0.76953,-1.93555 0.32754,-0.76537 0.60281,-1.55028 1.00391,-2.2832 0.28895,-0.76883 0.5800303,-1.5371 0.8710903,-2.30469 0.38205,-0.88006 0.61961,-1.80461 0.98438,-2.6914 0.36403,-0.96474 0.67826,-1.94796 1.00391,-2.92578 0.18697,-0.88814 0.38164,-1.77017 0.62695,-2.64454 0.1702,-0.89305 0.27984,-1.79158 0.42773,-2.6875 0.17518,-0.79655 0.23242,-1.59566 0.29102,-2.4082 0.12603,-1.02845 0.32601,-2.0546 0.28711,-3.0957 0.003,-1.11645 -0.0124,-2.23319 0.002,-3.34961 0.0113,-1.00276 0.0144,-2.00722 0.0899,-3.00781 0.0923,-1.00174 0.2612,-1.99214 0.3457,-2.99414 0,-0.85536 0.002,-1.71104 0.002,-2.56641 -10e-4,-0.86008 1.9e-4,-1.72063 -0.0371,-2.58008 -0.0503,-0.92967 -0.14569,-1.85459 -0.29883,-2.77344 -0.14589,-1.12335 -0.10951,-2.2499 -0.10351,-3.38085 0.005,-0.95363 0.009,-1.90768 0.006,-2.86133 -0.002,-1.08201 -0.005,-2.1641 -0.01,-3.2461 -0.004,-1.27976 0.002,-2.56098 -0.0547,-3.83984 -0.0541,-1.069 -0.15999,-2.13198 -0.32812,-3.18945 -0.0711,-0.84124 -0.0154,-1.68584 -0.0234,-2.5293 0.0115,-0.85499 0.0327,-1.70972 0.0566,-2.56445 0.0102,-0.87649 -0.0815,-1.74674 -0.0645,-2.62305 -9e-4,-0.96995 -0.002,-1.93841 -0.0215,-2.9082 -0.0247,-0.9535 -0.0899,-1.90698 -0.24218,-2.84961 -0.15597,-1.02806 -0.24688,-2.05537 -0.30078,-3.09375 -0.0971,-0.89247 -0.29665,-1.77291 -0.31055,-2.67188 -0.0313,-0.87286 -0.0858,-1.74622 -0.24023,-2.60742 -0.14385,-0.84369 -0.22552,-1.68184 -0.22852,-2.53906 -0.0652,-0.86793 -0.18197,-1.72924 -0.33594,-2.58594 -0.0793,-0.8507 -0.032,-1.70784 -0.125,-2.55859 -0.0861,-0.85207 -0.24974,-1.69366 -0.33594,-2.54493 -0.003,-0.86255 -0.006,-1.72477 -0.0605,-2.58593 -0.0662,-0.86617 -0.18615,-1.72476 -0.33789,-2.58008 -0.0733,-0.84685 -0.0181,-1.6996 -0.0332,-2.54883 0.006,-0.94792 0.0152,-1.8958 0.082,-2.8418 0.084,-1.05965 0.2545,-2.10771 0.3457,-3.16601 -0.002,-0.95855 -0.003,-1.91645 -0.004,-2.875 10e-4,-0.99005 0.003,-1.98066 0,-2.97071 0.002,-0.89839 0.006,-1.7969 0.002,-2.69531 -7.9e-4,-0.8517 -0.003,-1.70308 0.0117,-2.55469 0.0199,-0.79035 0.0483,-1.58338 0.18946,-2.36328 0.14729,-0.78147 0.29161,-1.5561 0.22851,-2.35742 0.006,-0.82147 0.0106,-1.64479 0.0937,-2.46289 0.0936,-0.75207 0.28927,-1.48215 0.38867,-2.23242 0.0653,-0.84253 0.18389,-1.67564 0.37305,-2.5 0.10574,-0.71722 0.15602,-1.45191 0.49414,-2.10938 0.32884,-0.73396 0.55721,-1.5086 0.81446,-2.26953 0.3853,-0.96056 0.93498,-1.86053 1.13085,-2.88867 0.25703,-0.79698 0.6398,-1.54397 0.87891,-2.34765 0.2332,-0.77853 -0.53263,-1.4935 -0.39648,-2.29493 0.12203,-0.86345 0.3101,-1.79221 0.60546,-2.62109 0.31604,-1.08075 0.97823,-1.51104 0.82227,-3.875 l -1.85156,0.64258 c 0.28941,-0.40282 0.53286,-0.83316 0.70117,-1.304692 0.28336,-0.80266 0.64323,-1.57179 0.91602,-2.37695 0.2468,-0.7311 0.57834,-1.4308 0.84179,-2.15625 0.35547,-0.88654 0.722,-1.76879 1.04492,-2.66797 0.27949,-0.74686 0.55597,-1.48786 0.92774,-2.19531 0.39632,-0.72361 0.7973,-1.42551 1.35547,-2.04297 0.59684,-0.83768 1.24175,-1.64678 1.99609,-2.34961 0.75311,-0.72784 1.46617,-1.46622 2.05078,-2.3418 0.79057,-0.90954 1.63137,-1.77527 2.42578,-2.68164 0.7875,-0.86969 1.56319,-1.75107 2.33203,-2.63672 0.61566,-0.59053 1.24995,-1.1573 1.81055,-1.80273 0.58513,-0.65771 1.29527,-1.18066 1.90039,-1.82032 0.53653,-0.57376 1.01805,-1.1957 1.52735,-1.79296 0.74479,-0.76769 1.43985,-1.58617 2.07421,-2.44727 0.53259,-0.72333 1.11473,-1.40523 1.72266,-2.06641 0.53965,-0.64857 1.20053,-1.1778 1.81445,-1.7539 0.0975,-0.0968 0.19687,-0.18904 0.29493,-0.28321 0.84788,-0.30073 1.7379,-0.54987 2.63672,-0.38085 0.81614,0.14664 1.59049,0.44512 2.41601,0.54492 0.77611,0.20949 1.53451,0.4913 2.18164,0.98047 1.01643,0.52806 1.95299,1.20131 3.02344,1.63281 1.47496,0.74182 2.84454,1.65876 4.18555,2.61914 0.87164,0.6165 1.75101,1.21597 2.45898,2.0293 0.32925,0.27586 1.07465,1.05884 1.57617,0.7832 1.9467,-1.06986 3.8504,-2.21773 5.77539,-3.32617 0.68424,-0.47638 1.40439,-0.90184 2.09375,-1.3711 0.81827,-0.5394 1.6077,-1.12158 2.36328,-1.74609 0.23357,-0.0699 0.46637,-0.13917 0.69727,-0.21875 0.92669,-0.0969 1.83983,-0.32555 2.76953,-0.34375 0.9306,-0.001 1.86043,0.002 2.79102,-0.002 0.92861,-0.002 1.85897,-0.005 2.78711,0.0293 0.78659,0.0391 1.57426,0.0925 2.32226,0.36328 0.82538,0.26052 1.72185,0.27301 2.51563,0.66016 0.8477,0.22353 1.62289,0.61323 2.40039,1.01172 0.66658,0.28308 1.28415,0.63033 1.875,1.04687 0.61585,0.4752 1.24151,0.93866 1.81445,1.46485 0.58791,0.65371 1.25659,1.22836 1.82617,1.89844 0.55146,0.60239 1.17407,1.17288 1.88672,1.58007 0.0509,-0.0336 0.33323,-0.20443 0.45898,-0.2832 -0.29479,0.19137 -0.37362,0.23788 -0.45703,0.28516 0.0748,0.0427 0.14571,0.0921 0.22266,0.13086 0.267,0.0868 0.78284,0.26339 1.06641,0.10742 2.40153,-1.32088 4.5146,-2.09155 6.314449,-3.82813 0.49678,-0.55935 1.01504,-1.10054 1.49219,-1.67773 0.63185,-0.73426 1.29491,-1.44283 2.0039,-2.10352 0.0846,-0.0704 0.17036,-0.14058 0.25391,-0.21289 0.15575,-0.0827 0.30666,-0.17058 0.47851,-0.2539 0.30108,-0.146 0.66183,-0.18327 0.92383,-0.41797 0.80318,-0.22322 1.57066,-0.54347 2.38477,-0.73633 0.81267,-0.31734 1.67123,-0.5295 2.52734,-0.68945 0.83442,-0.1689 1.69552,-0.049 2.54297,-0.0879 0.86301,-0.002 1.72752,-0.007 2.58985,0.0332 0.94402,0.06 1.88437,0.17582 2.78906,0.4668 0.77205,0.23916 1.55921,0.42487 2.33984,0.63086 0.6264,0.21301 1.27989,0.31738 1.8711,0.61914 0.57383,0.3617 1.21984,0.61413 1.73437,1.07226 0.57023,0.56975 1.10962,1.11929 1.42187,1.88477 0.30357,0.66053 0.62329,1.30968 0.91211,1.97656 0.32641,0.73194 0.46256,1.54097 0.88477,2.23047 0.35898,0.52903 0.75039,1.16311 1.4707,1.10351 0.23672,-0.068 0.46491,-0.16769 0.70703,-0.21289 0.55666,-0.10391 1.14875,-0.0537 1.69532,-0.23437 0.7188,-0.18632 1.44665,-0.294 2.15429,-0.51953 0.63816,-0.28152 1.40304,-0.23197 1.95313,-0.73633 0.79052,-0.29151 1.51879,-0.74138 2.27539,-1.10938 0.90231,-0.38721 1.85595,-0.64999 2.8125,-0.86328 0.83549,-0.22775 1.67945,-0.409 2.52148,-0.60156 0.23617,-0.0649 0.46525,-0.16012 0.70704,-0.19922 0.56847,-0.0919 1.16769,-0.0226 1.73242,-0.16406 0.84494,-0.14485 1.66568,-0.32562 2.53125,-0.22852 0.85032,0.0179 1.70154,0.0469 2.54297,0.18164 0.86219,0.14526 1.70668,0.31293 2.58789,0.26563 0.85113,0.0492 1.7033,0.13673 2.51757,0.40625 0.76953,0.24585 1.57451,0.38251 2.33594,0.6582 0.77902,0.25531 1.52485,0.59855 2.30274,0.85938 0.72373,0.21704 1.42241,0.52534 2.08789,0.88086 0.68942,0.25327 1.28867,0.6619 1.92187,1.02539 0.56844,0.46809 0.86169,1.13565 1.30274,1.71484 0.42131,0.53089 0.6847,1.16636 1.12109,1.6875 0.34615,0.56495 0.77036,1.07613 1.05469,1.67774 0.30133,0.71552 0.66386,1.40336 0.87304,2.15624 0.3406,0.78776 0.74777,1.54431 0.9961,2.3711 0.36607,0.8596 0.77501,1.70054 1.14648,2.55664 0.32547,0.877 0.73471,1.71957 1.06836,2.59375 0.38358,0.82696 0.7882,1.64522 1.07813,2.51172 0.23064,0.77345 0.42016,1.55758 0.67383,2.32422 0.17308,0.80645 0.25857,1.61149 0.32617,2.43359 0.16965,1.07748 0.45694,2.12721 0.66406,3.197272 0.21683,0.91508 0.54815,1.80209 0.66406,2.74023 0.19914,0.89264 0.54083,1.72781 0.83203,2.5918 0.24175,0.83762 0.41194,1.69387 0.56836,2.55078 0.20238,0.83876 0.40352,1.67336 0.52344,2.5293 0.10918,0.88989 0.1077,1.79281 0.2832,2.67578 0.21107,1.30421 0.31645,2.61325 0.40235,3.93164 0.18567,1.90214 0.46821,3.79464 0.54101,5.70703 0.11702,1.80804 0.11607,3.61477 0.13867,5.42578 0.0407,0.95257 0.14976,1.89392 0.34571,2.82813 0.10447,0.86143 0.0974,1.73704 0.29101,2.58789 0.17424,0.83793 0.31188,1.68374 0.51758,2.51367 0.22862,0.66966 0.50436,1.3238 0.83203,1.95117 0.27435,0.68185 0.60844,1.36888 1.09961,1.91992 0.59606,0.58917 1.11096,1.25365 1.70508,1.8457 0.4319,0.52549 1.03051,0.91244 1.57813,1.30469 0.72846,0.27242 1.39946,0.69149 2.17382,0.83985 0.91604,0.32267 1.79114,0.75607 2.70118,1.09765 1.14682,0.41299 2.27991,0.85616 3.43359,1.25 1.12118,0.35624 2.23946,0.71533 3.38867,0.97266 1.0149,0.30796 2.05679,0.4353 3.10742,0.55859 0.913,0.15182 1.81172,0.20981 2.74024,0.16211 1.04943,-0.002 2.09932,-0.005 3.14843,-0.0332 0.9712,-0.0446 1.94298,-0.1068 2.89258,-0.33203 1.06591,-0.21038 2.17401,-0.13457 3.24024,-0.37305 1.01985,-0.22499 2.05174,-0.39823 3.04297,-0.73828 0.88476,-0.3272 1.81154,-0.51582 2.68164,-0.87695 0.858,-0.18721 1.68114,-0.48013 2.53125,-0.70118 0.45979,-0.17867 0.93355,-0.2947 1.39062,-0.48047 0.38064,-0.1547 0.63271,-0.28943 1.00195,-0.47265 0.18019,-0.0756 0.37024,-0.12876 0.55469,-0.19336 0.82261,-0.39095 1.66462,-0.68073 2.56641,-0.82813 0.95625,-0.28167 1.92437,-0.51209 2.87109,-0.83007 1.25959,-0.24883 2.50562,-0.58727 3.73828,-0.94141 1.29627,-0.28188 2.59605,-0.56458 3.92188,-0.67578 1.53709,-0.21942 3.04597,-0.57811 4.58008,-0.81641 0.48788,-0.0977 0.96696,-0.23923 1.46093,-0.29883 0.81564,-0.0985 1.65989,0.0149 2.47461,-0.125 1.14175,-0.11139 2.27378,-0.33385 3.42383,-0.28125 0.91733,0.002 1.83584,0.001 2.75195,0.0547 0.96095,0.0723 1.90928,0.21823 2.85547,0.40039 1.07603,0.0504 2.16398,0.11146 3.20508,0.41016 1.10894,0.30044 2.2595,0.45503 3.36524,0.77734 1.21189,0.3753 2.30542,0.97608 3.49218,1.41016 0.97506,0.34459 1.92302,0.7664 2.86914,1.18359 0.8622,0.3148 1.7127,0.6599 2.57618,0.96875 0.83887,0.30483 1.71291,0.50754 2.56445,0.77344 0.82552,0.31247 1.64412,0.63479 2.49805,0.86328 0.71701,0.30714 1.41623,0.65109 2.14257,0.93555 0.8517,0.4261 1.78757,0.67058 2.67774,1.0039 0.74204,0.32064 1.45197,0.69757 2.19726,1.00196 0.75963,0.34545 1.52472,0.66685 2.28516,1.01172 0.76497,0.38043 1.53956,0.73516 2.30859,1.10742 0.81677,0.35206 1.53603,0.86516 2.24414,1.39844 0.60646,0.41878 1.06819,1.01488 1.73438,1.34765 0.63029,0.51266 1.06085,1.19557 1.63672,1.76367 0.58031,0.51904 1.08931,1.12008 1.5918,1.71289 0.49249,0.53132 0.93095,1.09366 1.00585,1.83789 0.11102,0.73079 0.036,1.47151 -0.26171,2.1543 -0.0463,0.0783 -0.0971,0.14092 -0.14454,0.21094 -0.10629,0.0362 -0.21391,0.0715 -0.32031,0.10742 -0.84318,0.35207 -1.71396,0.65248 -2.49805,1.125 -0.66623,0.30499 -1.33603,0.6274 -2.0664,0.75195 -0.77887,0.18747 -1.53745,0.44922 -2.30274,0.68165 -0.78632,0.32815 -1.66267,0.43333 -2.5039,0.52343 -0.99058,0.14003 -1.96062,0.39838 -2.96485,0.42188 -0.96754,0.13035 -1.91595,0.37696 -2.89843,0.35156 -0.97785,0.0577 -1.94307,0.20839 -2.90235,0.40625 -1.02946,0.0485 -2.07892,0.0806 -3.07812,0.35156 -0.69138,0.22437 -1.45592,0.21604 -2.07422,0.6543 -0.87452,0.24538 -1.61151,0.75795 -2.46875,1.05273 -0.9829,0.29825 -1.96281,0.59791 -2.94336,0.89258 -0.71764,0.27552 -1.35662,0.70273 -2.08789,0.95313 -0.71421,0.39868 -1.53473,0.59103 -2.24219,1.01562 -0.40102,0.2285 -0.8019,0.4574 -1.20312,0.68555 -1.19805,0.72216 -2.41161,1.41836 -3.62696,2.11133 -0.34697,0.17264 -0.99773,0.51061 -0.74804,0.41406 -0.0143,0.004 -0.0287,0.008 -0.043,0.0117 0.57276,-0.32936 1.30798,-0.75668 2.07617,-1.20313 -0.71707,0.40828 -1.43461,0.81602 -2.15039,1.22657 -1.13071,0.32357 -2.24876,0.69034 -3.4082,0.91015 -1.23121,0.32592 -2.4862,0.55969 -3.71094,0.91016 -1.09432,0.3396 -2.23319,0.5267 -3.30078,0.95508 -1.13308,0.45924 -2.30458,0.82531 -3.4336,1.29101 -0.96574,0.50518 -2.00888,0.82909 -2.98437,1.31641 -0.88167,0.31054 -1.67694,0.79682 -2.53516,1.16211 -0.93316,0.47058 -1.93918,0.73385 -2.87109,1.20508 -1.05682,0.40583 -2.11703,0.75998 -3.20508,1.07617 -1.27649,0.32338 -2.50326,0.80303 -3.77148,1.1582 -1.28225,0.43875 -2.54418,0.94278 -3.88477,1.19141 -1.12009,0.28033 -2.24931,0.51522 -3.34375,0.89258 -1.22379,0.4353 -2.47506,0.78954 -3.64453,1.37109 -1.30933,0.58649 -2.51635,1.35182 -3.85352,1.87305 -1.45592,0.61098 -2.87843,1.29781 -4.33593,1.90429 -1.38408,0.62322 -2.78849,1.19679 -4.19532,1.76563 -1.75795,0.7985 -3.57806,1.45417 -5.36914,2.17383 -1.22956,0.40472 -2.45535,0.79211 -3.64648,1.30468 -1.16648,0.52147 -2.40871,0.86251 -3.61133,1.29297 -3.06398,1.13737 -5.66608,2.28138 -8.4668,4.39453 -0.3705,0.22289 -0.73245,0.45584 -1.09375,0.69336 -0.11715,0.077 -0.47152,0.30358 -0.34961,0.23438 2.16353,-1.22812 12.35727,-7.12112 -0.79296,0.47265 1.23103,-0.70868 2.46244,-1.41806 3.69336,-2.12695 -1.63717,0.94892 -3.27749,1.89288 -4.9043,2.85938 -0.23752,0.1411 -0.44847,0.32328 -0.66211,0.5039 -0.32049,0.1371 -0.64662,0.26498 -0.98047,0.3711 -1.40069,0.63457 -2.84988,1.17483 -4.16602,1.98242 -1.19658,0.53644 -2.35808,1.14881 -3.58789,1.61133 -1.28257,0.42152 -2.57156,0.82085 -3.84375,1.27148 -1.43368,0.50757 -2.84962,1.0801 -4.20312,1.77539 -1.55534,0.66005 -3.17328,1.13352 -4.76953,1.66602 -3.09946,1.22658 -5.7506,3.45199 -8.76953,4.79882 -1.00655,0.61225 -1.98644,1.26319 -2.97461,1.9043 -0.99315,0.70826 -1.97688,1.42846 -2.9336,2.18555 -0.81357,0.64329 -1.62035,1.29444 -2.44922,1.91797 -0.56588,0.44703 -1.12457,0.90274 -1.71484,1.3164 -1.69573,0.94445 -3.37217,1.90668 -4.95312,3.04883 -0.62132,0.42777 -1.201,0.8984 -1.67383,1.49219 -0.58532,0.69895 -1.17139,1.39653 -1.76563,2.08789 -0.71222,0.741 -1.47813,1.42769 -2.1914,2.16797 -0.82002,0.76909 -1.6731,1.5109 -2.39844,2.37305 -0.79163,0.97399 -1.59927,1.93759 -2.44922,2.86132 -0.71729,0.81062 -1.38402,1.66014 -2.08008,2.48828 -0.65887,0.73102 -1.29439,1.48366 -1.91406,2.24805 -0.63198,0.83595 -1.32137,1.62721 -1.9043,2.5 -0.56145,0.7383 -1.16346,1.4474 -1.67578,2.2207 -0.49326,0.7715 -0.97715,1.55293 -1.375,2.37891 -0.40532,0.76915 -0.82345,1.53529 -1.07031,2.375 -0.25302,0.9 -0.35385,1.81582 -0.31445,2.75195 0.0876,1.44204 0.49944,2.82611 0.90429,4.20703 l 5.56446,-3.06445 c -0.45915,-1.30861 -0.82418,-2.64722 -0.82618,-4.03906 0.003,-0.88146 0.10085,-1.73557 0.42774,-2.55664 0.24068,-0.83227 0.77015,-1.52121 1.10937,-2.30664 0.40824,-0.80341 0.93228,-1.53777 1.38867,-2.3125 0.58466,-0.71078 1.18613,-1.41328 1.69532,-2.18164 0.60199,-0.85329 1.27783,-1.64585 1.90234,-2.48242 0.6583,-0.71939 1.27468,-1.47583 1.93945,-2.19141 0.63578,-0.87561 1.34173,-1.69529 2.07227,-2.49219 0.82399,-0.94968 1.67285,-1.89129 2.42773,-2.89844 0.79483,-0.78592 1.66028,-1.49742 2.4375,-2.30078 0.72807,-0.73636 1.49046,-1.42711 2.1875,-2.19531 0.59138,-0.6887 1.1157,-1.46335 1.77539,-2.08984 0.45401,-0.59718 1.12724,-0.95003 1.73438,-1.3711 0.0808,-0.0581 0.18432,-0.11923 0.27148,-0.17968 -1.10329,0.63262 -2.47819,1.42311 -1.86718,1.05273 0.0624,-0.0378 0.0681,-0.0394 0.1289,-0.0762 0.70445,-0.39676 1.40297,-0.80572 2.09961,-1.2168 0.10018,-0.067 0.19304,-0.1268 0.29492,-0.19336 0.77611,-0.44778 1.36338,-0.78345 1.6836,-0.94726 0.29475,-0.168 0.58318,-0.34689 0.88086,-0.50977 0.4391,-0.24027 0.19942,-0.0935 -0.35352,0.23242 0.46338,-0.21192 0.27385,-0.0644 1.41211,-0.92773 0.72476,-0.49786 1.40581,-1.07418 2.08594,-1.63867 0.84713,-0.58245 1.60946,-1.28009 2.43555,-1.89453 0.96496,-0.74234 1.92751,-1.49959 2.95507,-2.1543 0.0517,-0.0333 0.10461,-0.0644 0.15625,-0.0977 0.24128,-0.12109 0.50907,-0.26516 0.7168,-0.36328 1.57085,-0.63255 3.2057,-1.08845 4.78711,-1.69726 1.37144,-0.63942 2.75711,-1.24042 4.17188,-1.77735 1.25725,-0.48396 2.55217,-0.85526 3.82812,-1.28515 1.2467,-0.42639 2.43986,-0.98977 3.62891,-1.55274 1.35625,-0.73865 2.75346,-1.38503 4.16992,-1.99805 1.18727,-0.44907 2.34013,-0.9773 3.47656,-1.54101 0.91465,-0.45732 1.15819,-0.58548 1.39258,-0.72266 -0.20488,0.10993 -0.28742,0.14678 -0.0117,-0.0332 1.88212,-1.2287 3.88661,-2.25847 5.80859,-3.42383 0.2604,-0.15789 0.46515,-0.39321 0.71289,-0.57031 0.12058,-0.0924 0.24436,-0.18285 0.36329,-0.27735 0.0763,-0.0606 0.22308,-0.16263 0.35546,-0.25585 0.48928,-0.21358 0.99701,-0.43955 1.42579,-0.59961 1.20439,-0.42817 2.41517,-0.835 3.61523,-1.27539 1.20714,-0.48644 2.41826,-0.95534 3.6543,-1.36329 1.81657,-0.66988 3.62259,-1.37323 5.40625,-2.12695 1.39508,-0.58471 2.80003,-1.14671 4.18554,-1.75391 1.45607,-0.61559 2.88939,-1.2832 4.33789,-1.91601 1.33162,-0.51293 2.56963,-1.2176 3.84766,-1.84375 1.16388,-0.5581 2.3671,-1.02029 3.59375,-1.41797 1.08882,-0.37081 2.19604,-0.67509 3.31445,-0.94141 1.33709,-0.28889 2.64433,-0.68233 3.92969,-1.14648 1.2463,-0.38921 2.47903,-0.82178 3.73242,-1.1875 1.08529,-0.32458 2.17837,-0.61985 3.23828,-1.02149 0.94886,-0.42201 1.92833,-0.76539 2.88672,-1.16406 0.85255,-0.36402 1.66921,-0.80467 2.51367,-1.18554 1.00509,-0.43348 2.01419,-0.85971 3.01954,-1.29297 1.1154,-0.50075 2.26443,-0.91712 3.41211,-1.33594 1.05583,-0.43459 2.16542,-0.70239 3.26562,-0.99609 1.22107,-0.35876 2.46342,-0.63799 3.70117,-0.93164 1.18769,-0.2763 2.37101,-0.56436 3.53711,-0.92188 1.40355,-0.5258 2.72272,-1.29889 4.01563,-2.0918 l 2.10156,-1.23437 c -0.48929,0.28163 -0.90909,0.5255 -1.50781,0.86914 0.47597,-0.29398 0.95258,-0.57094 1.42578,-0.84961 0.0954,-0.0472 0.19128,-0.0944 0.28711,-0.14063 0.008,-0.005 0.0137,-0.007 0.0215,-0.0117 l 0.99805,-0.58594 c 0.0467,-0.0164 -0.43932,0.26356 -0.99805,0.58594 0.49764,-0.23972 0.99921,-0.4696 1.51367,-0.67188 0.69566,-0.3202 1.4009,-0.61384 2.08203,-0.96484 0.94226,-0.39737 1.9321,-0.65895 2.90626,-0.96289 0.86878,-0.22959 1.64673,-0.67945 2.46874,-1.02344 0.66746,-0.29205 1.33383,-0.53704 2.04688,-0.69141 0.97814,-0.31112 1.99742,-0.40165 3.01562,-0.46875 0.97399,-0.0912 1.93324,-0.28543 2.90626,-0.38867 0.98364,-0.018 1.95041,-0.16618 2.91992,-0.31641 0.99816,-0.0846 1.98153,-0.25635 2.96875,-0.41992 0.86527,-0.0789 1.71091,-0.24399 2.55664,-0.4375 0.75613,-0.25466 1.52158,-0.47431 2.28515,-0.70508 0.71857,-0.17584 1.44336,-0.36548 2.1211,-0.66601 0.81209,-0.43827 1.66447,-0.78296 2.50976,-1.15039 0.39824,-0.18877 0.83788,-0.29465 1.22266,-0.51367 1.25716,-0.71558 2.50744,-1.442 3.75976,-2.16602 -0.94652,0.54895 -1.89317,1.09777 -2.83984,1.64648 2.20655,-1.11291 4.26656,-2.50351 6.44336,-3.6621 1.73194,-0.92181 -3.40146,1.95513 -5.0918,2.95117 -0.23791,0.1402 0.5038,-0.22453 0.75977,-0.32813 2.15527,-1.10062 6.04409,-2.11984 6.98242,-4.82617 0.23403,-0.82845 0.2577,-1.65923 0.0957,-2.49805 -0.10792,-0.85156 -0.64289,-1.51416 -1.18554,-2.14257 -0.5081,-0.61569 -1.04859,-1.20907 -1.62305,-1.76368 -0.57952,-0.5729 -1.04569,-1.23448 -1.65039,-1.7832 -0.64434,-0.3904 -1.1636,-0.93437 -1.75586,-1.39258 -0.74198,-0.54914 -1.49941,-1.07371 -2.32227,-1.49414 -0.77866,-0.34597 -1.52523,-0.75303 -2.29882,-1.10937 -0.75238,-0.36361 -1.53353,-0.6656 -2.28907,-1.02149 -0.75179,-0.31181 -1.47117,-0.68922 -2.2207,-1.00586 -0.88439,-0.33382 -1.78042,-0.63811 -2.6543,-1 -0.71379,-0.32308 -1.43984,-0.61932 -2.15429,-0.9414 -0.83216,-0.31746 -1.68624,-0.56485 -2.51758,-0.88672 -0.84955,-0.29601 -1.71735,-0.53541 -2.57813,-0.79688 -0.86201,-0.29479 -1.71349,-0.62338 -2.56445,-0.94922 -0.95823,-0.40117 -1.91686,-0.80345 -2.88672,-1.17578 -1.19749,-0.41287 -2.31617,-1.00063 -3.50976,-1.42383 -1.11333,-0.3286 -2.24701,-0.57602 -3.37891,-0.82812 -1.0666,-0.31215 -2.17157,-0.42285 -3.27539,-0.50195 -0.94853,-0.10219 -1.88308,-0.29015 -2.83203,-0.39258 -0.9274,-0.0904 -1.86027,-0.0897 -2.79102,-0.0957 -1.16855,-0.0645 -2.32125,0.11199 -3.47851,0.23828 -1.33736,0.11262 -2.66611,0.15164 -3.98828,0.39453 -1.52232,0.2523 -3.03104,0.58467 -4.55469,0.82812 -1.31961,0.16461 -2.63616,0.35199 -3.93555,0.63672 -1.24386,0.32668 -2.49039,0.64782 -3.74219,0.94336 -0.95664,0.26388 -1.92277,0.49552 -2.875,0.77539 -0.88753,0.22671 -1.77262,0.4328 -2.625,0.77344 -0.97112,0.39879 -1.92052,0.83645 -2.91601,1.17187 -0.81605,0.29191 -1.65518,0.5129 -2.48828,0.75 -0.90933,0.27837 -1.8187,0.56043 -2.72656,0.84571 -0.96642,0.38659 -1.99358,0.54823 -3,0.78711 -1.05102,0.26112 -2.13436,0.30902 -3.20704,0.41406 -0.94808,0.17452 -1.89762,0.3084 -2.85937,0.375 -1.0403,0.0599 -2.08335,0.0596 -3.125,0.0605 -0.89854,-3e-4 -1.795,0.0291 -2.6875,-0.0859 -1.02886,-0.14321 -2.05851,-0.24923 -3.07031,-0.49024 -1.13623,-0.27844 -2.26378,-0.58737 -3.37696,-0.94726 -1.15036,-0.38026 -2.28575,-0.80083 -3.41992,-1.22656 -0.89981,-0.3481 -1.78346,-0.73524 -2.67383,-1.10547 -0.74857,-0.20954 -1.45117,-0.52069 -2.16015,-0.83203 -0.50679,-0.27203 -1.01684,-0.63153 -1.41016,-1.05664 -0.60977,-0.59547 -1.15152,-1.25232 -1.73633,-1.8711 -0.43743,-0.48402 -0.7351,-1.09505 -0.96484,-1.70312 -0.31847,-0.61942 -0.60692,-1.25691 -0.82227,-1.91993 -0.15242,-0.81632 -0.32352,-1.62794 -0.48632,-2.44335 -0.18055,-0.84376 -0.12936,-1.71074 -0.2754,-2.55665 -0.20532,-0.90868 -0.28829,-1.8338 -0.33789,-2.76171 -0.0307,-1.80575 -0.0731,-3.60455 -0.20117,-5.40625 -0.0753,-1.92035 -0.34862,-3.82284 -0.52734,-5.73438 -0.049,-1.341 -0.17403,-2.6628 -0.375,-3.98828 -0.16798,-0.88555 -0.11571,-1.79519 -0.26953,-2.67969 -0.12049,-0.87402 -0.35207,-1.71879 -0.55078,-2.57617 -0.14416,-0.87095 -0.31996,-1.7412 -0.58594,-2.58398 -0.29647,-0.84502 -0.63318,-1.6601 -0.80469,-2.54297 -0.10219,-0.944942 -0.47411,-1.826402 -0.68945,-2.746102 -0.20748,-1.05392 -0.48411,-2.08783 -0.62696,-3.15429 -0.0215,-0.84412 -0.15689,-1.65556 -0.33007,-2.47852 -0.27924,-0.77592 -0.47072,-1.57618 -0.70704,-2.36523 -0.31183,-0.8904 -0.73435,-1.73222 -1.12695,-2.58789 -0.31529,-0.86276 -0.73495,-1.68103 -1.04101,-2.54688 -0.38439,-0.86255 -0.79748,-1.71165 -1.16211,-2.58398 -0.23881,-0.8304 -0.6595,-1.58574 -0.98828,-2.37891 -0.19634,-0.75487 -0.57653,-1.43482 -0.86719,-2.15234 -0.28707,-0.63983 -0.73619,-1.17747 -1.10547,-1.76758 -0.43338,-0.54847 -0.73186,-1.18291 -1.14649,-1.74414 -0.44955,-0.61993 -0.81904,-1.27555 -1.37304,-1.81055 -0.63891,-0.46822 -1.32119,-0.87711 -2.04102,-1.20703 -0.68767,-0.34467 -1.39085,-0.65366 -2.11328,-0.91797 -0.77212,-0.26323 -1.53083,-0.55495 -2.29101,-0.84961 -0.77884,-0.26614 -1.56925,-0.48795 -2.36719,-0.6875 -0.84226,-0.27429 -1.71056,-0.42642 -2.58985,-0.51172 -0.85952,-0.0288 -1.70632,-0.0775 -2.55468,-0.2207 -0.85653,-0.15761 -1.72498,-0.2155 -2.59375,-0.25 -0.87732,-0.0598 -1.73988,-0.017 -2.60547,0.12695 -0.81062,0.17081 -1.64656,0.16259 -2.45703,0.32422 -0.85501,0.18177 -1.69867,0.40672 -2.54883,0.60938 -0.96631,0.20451 -1.90607,0.49081 -2.84375,0.79687 -0.77869,0.32361 -1.53297,0.70368 -2.28711,1.08008 -0.6197,0.32934 -1.23089,0.61304 -1.91602,0.77539 -0.68652,0.28101 -1.42069,0.38261 -2.13476,0.5625 -0.7812,0.24186 -1.60367,0.26645 -2.39649,0.44531 -0.55369,0.20868 -0.72088,-0.0368 -1.0332,-0.46875 -0.37568,-0.66533 -0.52139,-1.42607 -0.83594,-2.12109 -0.29042,-0.6696 -0.59897,-1.32964 -0.91406,-1.98828 -0.36784,-0.80863 -0.91477,-1.45285 -1.53711,-2.07227 -0.53504,-0.4995 -1.17031,-0.86916 -1.81055,-1.21484 -0.58696,-0.39861 -1.28792,-0.51033 -1.94726,-0.72852 -0.78642,-0.23365 -1.58002,-0.43925 -2.375,-0.64258 -0.93018,-0.29383 -1.88504,-0.47246 -2.85352,-0.57226 -0.87027,-0.0737 -1.74446,-0.0732 -2.61718,-0.0762 z m 57.75195,145.052732 c 0.9896,-0.53097 6.35288,-3.70999 4.97265,-2.91992 -4.15774,2.37998 -4.55613,2.67615 -4.97265,2.91992 z m -35.2168,17.65039 c -0.0926,0.0424 -0.36233,0.19293 -0.52734,0.27735 -0.66143,0.37697 -1.32288,0.75373 -1.97852,1.14062 -0.12325,0.0824 -0.24515,0.15967 -0.36133,0.24024 1.14963,-0.6592 2.04475,-1.17344 2.86719,-1.65821 z m 116.11133,-51.69336 c 0.78065,-0.44448 1.5609,-0.88994 2.3418,-1.33398 0.0497,-0.03 0.10073,-0.0578 0.15039,-0.0879 1.10137,-0.66722 -0.63697,0.34368 -2.49219,1.42187 z M 93.444881,75.770178 c 0,0 -0.002,-0.002 -0.002,-0.002 -0.0727,0.0479 -0.0471,0.0298 0.002,0.002 z M 258.5777,172.71158 c -2.45339,1.37529 -5.30769,3.03635 -4.92579,2.82032 1.64777,-0.92901 3.28417,-1.88051 4.92579,-2.82032 z m -2.30469,2.39453 c -0.27396,0.15856 -1.69138,0.99347 -1.27149,0.74024 0.40878,-0.24652 0.82521,-0.48009 1.23633,-0.72266 0.0117,-0.006 0.0235,-0.0117 0.0352,-0.0176 z m -74.79688,28.1836 c -0.48665,0.29228 -0.98236,0.56878 -1.47461,0.85156 -0.053,0.0253 -0.10534,0.0525 -0.1582,0.0781 1.45613,-0.8453 2.54438,-1.47717 1.63281,-0.92969 z"
     id="path4235"
     inkscape:connector-curvature="0" />
</svg>
